<svg width="608" height="88" viewBox="0 0 608 88" fill="none" xmlns="http://www.w3.org/2000/svg">
<path d="M8 40.5V39.5H7V40.5H8ZM7.29291 87.7071C7.68341 88.0976 8.31659 88.0976 8.70709 87.7071L15.071 81.3431C15.4616 80.9526 15.4616 80.3195 15.071 79.9289C14.6805 79.5384 14.0474 79.5384 13.6569 79.9289L8 85.5858L2.34314 79.9289C1.95264 79.5384 1.31946 79.5384 0.928955 79.9289C0.538391 80.3195 0.538391 80.9526 0.928955 81.3431L7.29291 87.7071ZM602 0.166667C599.054 0.166667 596.667 2.55448 596.667 5.5C596.667 8.44552 599.054 10.8333 602 10.8333C604.946 10.8333 607.333 8.44552 607.333 5.5C607.333 2.55448 604.946 0.166667 602 0.166667ZM602 40.5V41.5H603V40.5H602ZM7 40.5V87H9V40.5H7ZM601 5.5V40.5H603V5.5H601ZM602 39.5L8 39.5V41.5L602 41.5V39.5Z" fill="#8D4FFF"/>
</svg>
