<svg width="50" height="50" viewBox="0 0 50 50" fill="none" xmlns="http://www.w3.org/2000/svg">
<path d="M11.6456 5.41826C8.58371 2.12674 5.64948 1.26426 4.23159 2.57703C2.8137 3.8898 3.44804 6.88165 6.49443 10.1875C3.28122 10.376 1.39823 11.6369 1.33682 13.2322C1.26649 15.0589 3.60769 16.6324 7.72187 16.7907C10.8396 16.9108 14.0728 16.1814 15.4854 15.0257C15.535 14.9862 15.5832 14.9376 15.6313 14.8931C15.6794 14.8485 15.7351 14.8018 15.7783 14.7546C17.0391 13.4341 18.0149 10.2666 18.1349 7.14972C18.2933 3.03554 16.9045 0.580304 15.0777 0.509979C13.4825 0.448568 12.0806 2.22905 11.6456 5.41826Z" fill="#33D3A5"/>
<path d="M14.2249 12.4309L13.2888 13.2976C12.1209 14.3793 11.2309 15.7266 10.6943 17.2254C10.1577 18.7241 9.99024 20.3301 10.2061 21.9073C10.6639 25.3465 12.2522 28.5358 14.7211 30.9735C21.6854 37.7934 31.0055 43.721 39.2139 48.7287C40.073 49.2522 41.052 49.5466 42.0574 49.5836C43.624 49.6439 45.1505 49.0794 46.3009 48.0142C47.4513 46.9491 48.1315 45.4706 48.1918 43.9039L48.2005 43.679C48.2362 42.8168 48.0812 41.9574 47.7466 41.162C43.9077 32.0896 38.6251 22.0936 31.7609 14.7615C29.5657 12.4227 26.7101 10.8082 23.5743 10.1331L23.0486 10.0193C21.4923 9.68238 19.8777 9.72565 18.3417 10.1455C16.8057 10.5653 15.3935 11.3492 14.2249 12.4309Z" fill="#FF9E5C"/>
<path d="M28.4848 13.8075C35.3457 21.1395 40.6316 31.1356 44.4705 40.208C44.8051 41.0034 44.9601 41.8628 44.9244 42.725L44.9157 42.9499C44.8565 44.4698 44.2133 45.9083 43.1199 46.9658C42.0266 48.0232 40.5674 48.6181 39.0464 48.6265L39.2139 48.7282C40.0938 49.2631 41.0982 49.5589 42.1276 49.5863C43.1569 49.6137 44.1756 49.3717 45.0827 48.8843C45.9898 48.3969 46.7538 47.681 47.2991 46.8075C47.8445 45.934 48.1522 44.9332 48.1918 43.9042L48.2004 43.6793C48.2361 42.8171 48.0812 41.9577 47.7466 41.1623C43.9076 32.0899 38.6251 22.0939 31.7608 14.7618C29.5657 12.423 26.71 10.8085 23.5742 10.1334L23.0485 10.0196C23.0083 10.0106 22.9661 10.009 22.9259 10.0008C25.0324 10.8527 26.9289 12.1515 28.4848 13.8075Z" fill="#EF843C"/>
<path d="M14.2136 25.7426C14.1565 25.8352 14.1182 25.938 14.1009 26.0454C14.0836 26.1527 14.0876 26.2624 14.1126 26.3682C14.1377 26.474 14.1834 26.5738 14.247 26.6619C14.3107 26.7501 14.3911 26.8248 14.4836 26.8819C14.5761 26.9389 14.679 26.9772 14.7863 26.9945C14.8937 27.0119 15.0033 27.0079 15.1091 26.9828C15.2149 26.9577 15.3147 26.9121 15.4029 26.8484C15.491 26.7848 15.5657 26.7044 15.6228 26.6118C18.606 21.7716 22.1367 18.4978 26.418 16.5971C26.6191 16.5082 26.7766 16.343 26.856 16.138C26.9353 15.9329 26.9299 15.7047 26.841 15.5036C26.7521 15.3025 26.587 15.1449 26.3819 15.0656C26.1768 14.9863 25.9486 14.9916 25.7475 15.0805C21.147 17.123 17.3778 20.6095 14.2136 25.7426Z" fill="#EF843C"/>
<path d="M22.1501 32.8421C22.1147 32.9449 22.0999 33.0537 22.1065 33.1623C22.1132 33.2708 22.1412 33.377 22.1888 33.4747C22.2365 33.5724 22.303 33.6598 22.3845 33.7319C22.4659 33.8039 22.5608 33.8592 22.6636 33.8946C22.7664 33.93 22.8752 33.9448 22.9838 33.9381C23.0923 33.9315 23.1985 33.9035 23.2962 33.8558C23.394 33.8081 23.4813 33.7417 23.5534 33.6602C23.6254 33.5788 23.6807 33.4839 23.7161 33.3811C24.1824 32.0259 26.0883 30.2996 29.3798 28.2481C29.5662 28.1321 29.6988 27.9468 29.7485 27.7329C29.7982 27.5191 29.7609 27.2943 29.6449 27.108C29.5288 26.9216 29.3435 26.789 29.1297 26.7393C28.9158 26.6896 28.691 26.7269 28.5047 26.8429C24.7804 29.1635 22.7632 31.0702 22.1501 32.8421Z" fill="#EF843C"/>
<path d="M33.7475 33.2353C33.662 33.4376 33.6603 33.6656 33.7429 33.8691C33.8254 34.0726 33.9854 34.235 34.1877 34.3206C34.39 34.4061 34.618 34.4078 34.8216 34.3253C35.0251 34.2427 35.1875 34.0827 35.2731 33.8804C35.6493 33.0631 36.1847 32.329 36.8481 31.7212C37.5114 31.1133 38.2893 30.6439 39.1362 30.3403C39.2358 30.2967 39.3258 30.2339 39.4011 30.1556C39.4764 30.0772 39.5355 29.9848 39.5751 29.8835C39.6147 29.7823 39.634 29.6743 39.6318 29.5656C39.6296 29.457 39.6061 29.3498 39.5625 29.2502C39.5189 29.1507 39.4561 29.0607 39.3778 28.9854C39.2994 28.9101 39.207 28.8509 39.1057 28.8113C39.0045 28.7718 38.8965 28.7525 38.7878 28.7547C38.6792 28.7568 38.572 28.7804 38.4724 28.824C37.4304 29.207 36.4756 29.7946 35.6642 30.5521C34.8527 31.3097 34.2011 32.222 33.7475 33.2353Z" fill="#EF843C"/>
<path d="M38.2955 42.8137C38.2871 43.033 38.3661 43.2467 38.5152 43.4077C38.6643 43.5688 38.8713 43.664 39.0906 43.6725C39.31 43.6809 39.5237 43.6019 39.6847 43.4528C39.8458 43.3036 39.941 43.0967 39.9495 42.8773C39.956 42.7061 40.1259 42.0808 42.0401 41.2145C42.2401 41.124 42.3961 40.9577 42.4736 40.7523C42.5511 40.5468 42.5438 40.319 42.4533 40.1189C42.3628 39.9188 42.1965 39.7629 41.9911 39.6854C41.7856 39.6079 41.5578 39.6152 41.3577 39.7057C39.3424 40.6178 38.3409 41.6352 38.2955 42.8137Z" fill="#EF843C"/>
</svg>
