<svg
  xmlns="http://www.w3.org/2000/svg"
  width="1440"
  height="182"
  viewBox="0 0 1440 182"
  fill="none"
>
  <g style="mix-blend-mode:overlay">
    <path
      fillRule="evenodd"
      clipRule="evenodd"
      d="M389.439 160.677C389.439 160.339 389.439 159.935 389.369 159.462C390.067 160.306 389.885 160.811 389.439 160.677ZM389.439 160.677C389.439 160.339 389.439 159.935 389.369 159.462C390.067 160.306 389.885 160.811 389.439 160.677ZM389.439 160.677C389.439 160.339 389.439 159.935 389.369 159.462C390.067 160.306 389.885 160.811 389.439 160.677ZM389.439 160.677C389.439 160.339 389.439 159.935 389.369 159.462C390.067 160.306 389.885 160.811 389.439 160.677ZM389.439 160.677C389.439 160.339 389.439 159.935 389.369 159.462C390.067 160.306 389.885 160.811 389.439 160.677ZM389.439 160.677C389.439 160.339 389.439 159.935 389.369 159.462C390.067 160.306 389.885 160.811 389.439 160.677ZM389.439 160.677C389.439 160.339 389.439 159.935 389.369 159.462C390.067 160.306 389.885 160.811 389.439 160.677ZM389.439 160.677C389.439 160.339 389.439 159.935 389.369 159.462C390.067 160.306 389.885 160.811 389.439 160.677ZM389.439 160.677C389.439 160.339 389.439 159.935 389.369 159.462C390.067 160.306 389.885 160.811 389.439 160.677ZM389.439 160.677C389.439 160.339 389.439 159.935 389.369 159.462C390.067 160.306 389.885 160.811 389.439 160.677ZM389.439 160.677C389.439 160.339 389.439 159.935 389.369 159.462C390.067 160.306 389.885 160.811 389.439 160.677ZM389.439 160.677C389.439 160.339 389.439 159.935 389.369 159.462C390.067 160.306 389.885 160.811 389.439 160.677ZM389.439 160.677C389.439 160.339 389.439 159.935 389.369 159.462C390.067 160.306 389.885 160.811 389.439 160.677ZM389.439 160.677C389.439 160.339 389.439 159.935 389.369 159.462C390.067 160.306 389.885 160.811 389.439 160.677ZM389.439 160.677C389.439 160.339 389.439 159.935 389.369 159.462C390.067 160.306 389.885 160.811 389.439 160.677ZM389.439 160.677C389.439 160.339 389.439 159.935 389.369 159.462C390.067 160.306 389.885 160.811 389.439 160.677ZM389.439 160.677C389.439 160.339 389.439 159.935 389.369 159.462C390.067 160.306 389.885 160.811 389.439 160.677ZM389.439 160.677C389.439 160.339 389.439 159.935 389.369 159.462C390.067 160.306 389.885 160.811 389.439 160.677ZM389.439 160.677C389.439 160.339 389.439 159.935 389.369 159.462C390.067 160.306 389.885 160.811 389.439 160.677ZM389.439 160.677C389.439 160.339 389.439 159.935 389.369 159.462C390.067 160.306 389.885 160.811 389.439 160.677ZM389.439 160.677C389.439 160.339 389.439 159.935 389.369 159.462C390.067 160.306 389.885 160.811 389.439 160.677ZM389.439 160.677C389.439 160.339 389.439 159.935 389.369 159.462C390.067 160.306 389.885 160.811 389.439 160.677ZM389.439 160.677C389.439 160.339 389.439 159.935 389.369 159.462C390.067 160.306 389.885 160.811 389.439 160.677ZM389.439 160.677C389.439 160.339 389.439 159.935 389.369 159.462C390.067 160.306 389.885 160.811 389.439 160.677ZM389.439 160.677C389.439 160.339 389.439 159.935 389.369 159.462C390.067 160.306 389.885 160.811 389.439 160.677ZM389.439 160.677C389.439 160.339 389.439 159.935 389.369 159.462C390.067 160.306 389.885 160.811 389.439 160.677ZM389.439 160.677C389.439 160.339 389.439 159.935 389.369 159.462C390.067 160.306 389.885 160.811 389.439 160.677ZM389.439 160.677C389.439 160.339 389.439 159.935 389.369 159.462C390.067 160.306 389.885 160.811 389.439 160.677ZM389.439 160.677C389.439 160.339 389.439 159.935 389.369 159.462C390.067 160.306 389.885 160.811 389.439 160.677ZM389.439 160.677C389.439 160.339 389.439 159.935 389.369 159.462C390.067 160.306 389.885 160.811 389.439 160.677ZM389.439 160.677C389.439 160.339 389.439 159.935 389.369 159.462C390.067 160.306 389.885 160.811 389.439 160.677ZM389.439 160.677C389.439 160.339 389.439 159.935 389.369 159.462C390.067 160.306 389.885 160.811 389.439 160.677ZM389.439 160.677C389.439 160.339 389.439 159.935 389.369 159.462C390.067 160.306 389.885 160.811 389.439 160.677ZM389.439 160.677C389.439 160.339 389.439 159.935 389.369 159.462C390.067 160.306 389.885 160.811 389.439 160.677ZM389.439 160.677C389.439 160.339 389.439 159.935 389.369 159.462C390.067 160.306 389.885 160.811 389.439 160.677ZM389.439 160.677C389.439 160.339 389.439 159.935 389.369 159.462C390.067 160.306 389.885 160.811 389.439 160.677ZM389.439 160.677C389.439 160.339 389.439 159.935 389.369 159.462C390.067 160.306 389.885 160.811 389.439 160.677ZM389.439 160.677C389.439 160.339 389.439 159.935 389.369 159.462C390.067 160.306 389.885 160.811 389.439 160.677ZM389.439 160.677C389.439 160.339 389.439 159.935 389.369 159.462C390.067 160.306 389.885 160.811 389.439 160.677ZM389.439 160.677C389.439 160.339 389.439 159.935 389.369 159.462C390.067 160.306 389.885 160.811 389.439 160.677ZM389.439 160.677C389.439 160.339 389.439 159.935 389.369 159.462C390.067 160.306 389.885 160.811 389.439 160.677ZM389.439 160.677C389.439 160.339 389.439 159.935 389.369 159.462C390.067 160.306 389.885 160.811 389.439 160.677ZM389.439 160.677C389.439 160.339 389.439 159.935 389.369 159.462C390.067 160.306 389.885 160.811 389.439 160.677ZM389.439 160.677C389.439 160.339 389.439 159.935 389.369 159.462C390.067 160.306 389.885 160.811 389.439 160.677ZM389.439 160.677C389.439 160.339 389.439 159.935 389.369 159.462C390.067 160.306 389.885 160.811 389.439 160.677ZM389.439 160.677C389.439 160.339 389.439 159.935 389.369 159.462C390.067 160.306 389.885 160.811 389.439 160.677ZM389.439 160.677C389.439 160.339 389.439 159.935 389.369 159.462C390.067 160.306 389.885 160.811 389.439 160.677ZM389.439 160.677C389.439 160.339 389.439 159.935 389.369 159.462C390.067 160.306 389.885 160.811 389.439 160.677ZM389.439 160.677C389.439 160.339 389.439 159.935 389.369 159.462C390.067 160.306 389.885 160.811 389.439 160.677ZM389.439 160.677C389.439 160.339 389.439 159.935 389.369 159.462C390.067 160.306 389.885 160.811 389.439 160.677ZM389.439 160.677C389.439 160.339 389.439 159.935 389.369 159.462C390.067 160.306 389.885 160.811 389.439 160.677ZM389.439 160.677C389.439 160.339 389.439 159.935 389.369 159.462C390.067 160.306 389.885 160.811 389.439 160.677ZM389.439 160.677C389.439 160.339 389.439 159.935 389.369 159.462C390.067 160.306 389.885 160.811 389.439 160.677ZM1162.95 92.0673C1162.5 92.0673 1162.33 91.6626 1163.02 90.853C1162.99 91.3253 1162.98 91.73 1162.95 92.0673ZM389.439 160.677C389.439 160.339 389.439 159.935 389.369 159.462C390.067 160.306 389.885 160.811 389.439 160.677ZM1162.95 92.0673C1162.5 92.0673 1162.33 91.6626 1163.02 90.853C1162.99 91.3253 1162.98 91.73 1162.95 92.0673ZM389.439 160.677C389.439 160.339 389.439 159.935 389.369 159.462C390.067 160.306 389.885 160.811 389.439 160.677ZM1162.95 92.0673C1162.5 92.0673 1162.33 91.6626 1163.02 90.853C1162.99 91.3253 1162.98 91.73 1162.95 92.0673ZM389.439 160.677C389.439 160.339 389.439 159.935 389.369 159.462C390.067 160.306 389.885 160.811 389.439 160.677ZM1162.95 92.0673C1162.5 92.0673 1162.33 91.6626 1163.02 90.853C1162.99 91.3253 1162.98 91.73 1162.95 92.0673ZM389.439 160.677C389.439 160.339 389.439 159.935 389.369 159.462C390.067 160.306 389.885 160.811 389.439 160.677ZM1162.95 92.0673C1162.5 92.0673 1162.33 91.6626 1163.02 90.853C1162.99 91.3253 1162.98 91.73 1162.95 92.0673ZM389.439 160.677C389.439 160.339 389.439 159.935 389.369 159.462C390.067 160.306 389.885 160.811 389.439 160.677ZM1162.95 92.0673C1162.5 92.0673 1162.33 91.6626 1163.02 90.853C1162.99 91.3253 1162.98 91.73 1162.95 92.0673ZM389.439 160.677C389.439 160.339 389.439 159.935 389.369 159.462C390.067 160.306 389.885 160.811 389.439 160.677ZM1162.95 92.0673C1162.5 92.0673 1162.33 91.6626 1163.02 90.853C1162.99 91.3253 1162.98 91.73 1162.95 92.0673ZM389.439 160.677C389.439 160.339 389.439 159.935 389.369 159.462C390.067 160.306 389.885 160.811 389.439 160.677ZM1162.95 92.0673C1162.5 92.0673 1162.33 91.6626 1163.02 90.853C1162.99 91.3253 1162.98 91.73 1162.95 92.0673ZM389.439 160.677C389.439 160.339 389.439 159.935 389.369 159.462C390.067 160.306 389.885 160.811 389.439 160.677ZM1162.95 92.0673C1162.5 92.0673 1162.33 91.6626 1163.02 90.853C1162.99 91.3253 1162.98 91.73 1162.95 92.0673ZM389.439 160.677C389.439 160.339 389.439 159.935 389.369 159.462C390.067 160.306 389.885 160.811 389.439 160.677ZM1162.95 92.0673C1162.5 92.0673 1162.33 91.6626 1163.02 90.853C1162.99 91.3253 1162.98 91.73 1162.95 92.0673ZM1454.63 203.077C1451.84 213.196 1447.98 219.942 1438.59 224.53C1433.47 226.365 1428.3 227.312 1423.13 227.363C1413.71 228.308 1404.26 228.814 1394.87 230.062C1382.65 231.726 1370.44 233.176 1358.22 234.413C1338.94 236.437 1320.2 239.338 1301.04 242.441C1267.56 247.838 1234.24 255.124 1200.53 259.306C1178.08 262.106 1155.51 265.31 1132.96 267.031C1109.77 268.852 1086.53 270.404 1063.31 271.922C1006.44 275.936 949.24 273.878 892.253 275.295C832.281 276.745 772.016 275.497 711.933 275.565C679.548 275.565 647.206 274.384 614.849 274.283C585.504 274.283 556.188 273.8 526.9 272.833C495.268 271.753 463.399 271.18 431.824 268.717C400.248 266.255 369.063 263.556 337.71 261.128C303.889 258.497 270.068 255.9 236.358 252.122C224.271 250.795 212.239 249.288 200.263 247.602C187.704 250.748 175.064 251.56 162.453 250.03C146.54 247.737 129.12 250.435 115.299 239.911C113.681 238.697 112.175 237.314 110.696 235.965C106.512 234.447 102.496 232.591 98.2976 230.062L91.5473 226.014C82.2494 223.765 72.8864 221.64 63.4583 219.639C65.8455 218.28 68.1789 216.417 70.4317 214.073C72.3424 211.914 73.7232 209.351 75.7455 207.327C78.9895 204.271 82.3612 202.077 85.8012 200.783C89.9853 198.86 93.7648 196.567 98.186 195.082C100.682 194.239 103.081 193.092 105.634 192.451L109.72 191.541C110.892 191.305 111.659 190.697 112.774 190.326C115.327 189.449 117.949 188.572 120.585 187.83C123.411 187.078 126.209 185.792 128.953 183.985C130.097 183.186 131.151 181.767 132.035 179.836C132.9 177.981 132.454 175.147 132.454 173.09C132.569 171.512 132.433 169.887 132.074 168.542C131.714 167.197 131.157 166.23 130.515 165.837C128.618 164.083 125.801 164.32 123.458 163.712C122.679 163.395 121.891 163.237 121.101 163.24C120.557 163.24 119.832 163.24 119.302 163.24C117.767 162.97 116.638 162.599 114.992 162.633C113.012 162.633 111.101 162.633 109.148 162.936C106.924 163.275 104.692 163.106 102.482 162.431C99.2181 161.756 95.7732 161.553 92.5654 160.609C89.9853 159.934 87.5445 158.754 84.9643 158.147C80.2642 157.034 75.2016 154.774 70.2783 155.988C69.0091 156.258 67.9073 156.966 66.5824 157.101C65.7316 157.101 64.7553 157.101 63.9046 157.101C62.3983 157.101 60.878 157.101 59.3997 157.101C55.3551 156.359 51.5894 154.639 47.6424 153.526C41.5519 151.98 35.3952 153.297 29.5115 157.405C26.6524 159.293 23.6817 161.014 20.8366 162.903C19.2745 163.948 17.7821 165.196 16.3456 166.276C14.916 167.7 13.5193 169.311 12.1615 171.099C3.3471 181.219 -4.47709 194.475 -3.33344 208.204C-5.62418 208.248 -7.90619 208.893 -10.1395 210.126C-13.3613 211.678 -16.2901 213.668 -14.5746 222.708C-16.6388 215.962 -15.6207 208.845 -15.7183 201.795C-15.9135 189.247 -17.5872 176.834 -18.6611 164.32C-14.2678 164.32 -10.2929 163.038 -5.84387 162.498C-1.24879 162.085 3.3306 160.958 7.86596 159.125C12.5242 157.168 16.8616 154.571 21.5757 152.75C22.9704 152.244 24.1141 152.277 25.453 151.94C27.1545 151.502 28.9815 150.928 30.6831 150.389C34.8671 149.107 38.7583 147.015 42.8029 145.295C45.7039 144.081 47.5867 142.462 48.1864 139.19C48.3817 138.11 47.754 136.694 47.2938 135.817C46.192 133.692 42.8168 132.443 40.92 131.297C35.3672 127.827 29.7438 125.058 24.0722 122.999C20.7529 121.886 17.4754 120.638 14.1421 119.626C9.23275 118.108 4.18396 117.096 -0.781137 115.848C-7.16405 114.224 -13.5839 113.604 -20 113.993C-19.3305 100.905 -18.9819 87.7161 -17.9777 74.6959C-17.8913 72.4333 -17.5648 70.2631 -17.0296 68.3956C-16.4945 66.5281 -15.7689 65.0266 -14.9233 64.0367C-11.9108 60.2926 -6.83413 59.9216 -2.83138 59.5169C3.29131 58.9434 9.31641 56.5822 15.4251 56.3461C21.5339 56.11 27.3637 55.1993 33.3748 54.8957C38.1167 54.6259 43.0121 55.6378 47.7122 54.8957C51.6452 54.2548 55.0343 53.5464 59.0232 53.5464C65.0203 53.5464 71.0454 53.5464 77.0565 53.5464C79.4953 53.5592 81.9319 53.1873 84.3507 52.4332C87.8507 51.848 91.3615 51.7354 94.8667 52.096C102.956 52.096 111.045 52.096 119.12 52.096C123.765 52.096 127.767 53.5464 132.509 53.5464C136.806 53.7102 141.103 53.3275 145.382 52.3996C149.119 51.7271 152.82 50.1564 156.428 47.7109C160.152 44.8775 163.402 41.2683 167.418 38.8396C171.7 36.1749 175.703 32.0933 180.305 30.3056C185.284 28.3154 190.752 26.9326 195.842 25.5833C203.761 23.1592 211.726 21.6958 219.705 21.1983C225.172 20.9959 230.682 20.0513 236.163 19.7815C240.974 19.4779 246.288 18.7695 251.072 17.8925C261.086 16.071 270.43 17.5553 280.43 18.1624C284.042 18.3648 287.85 19.6803 291.42 20.4224C296.302 21.468 300.946 21.4681 305.827 22.986C310.709 24.5039 315.451 26.5278 320.123 28.5517C323.275 29.9347 326.957 30.2382 330.318 31.4187C333.262 32.5033 336.238 33.0109 339.216 32.9367C343.212 32.9629 347.205 32.3657 351.169 31.1488C358.393 28.99 366.51 27.0674 372.968 22.986C376.29 21.1405 379.674 20.0117 383.079 19.6128C385.701 19.1406 388.295 18.6009 390.903 18.1624C392.647 17.8251 394.223 17.0831 395.966 16.7458C398.114 16.341 400.276 16.9481 402.438 16.5096C419.104 13.1365 436.022 10.7415 452.995 10.7415C467.137 10.7415 481.279 10.7415 495.422 10.7415C501.515 10.5896 507.605 11.4462 513.65 13.3051C520.916 15.6663 528.601 16.3747 535.826 18.8033C543.999 21.5355 552.771 23.7618 560.302 28.9227C563.301 30.9128 565.114 33.0042 568.671 32.9705C576.174 32.9705 583.677 32.9705 591.167 32.9705C594.556 32.9705 597.694 31.6211 601.041 31.385C604.389 31.1489 607.569 31.8572 610.804 31.1488C616.383 29.9008 622.143 29.8671 627.805 28.6528C630.497 28.0793 633.175 28.8888 635.881 28.1805C638.921 27.4047 641.961 27.1349 645.002 26.3253C648.642 25.3134 652.226 26.0892 655.894 25.2459C661.125 24.0316 666.09 24.1328 671.417 24.0654C679.186 24.0654 686.759 26.3591 694.444 27.0337C697.163 27.1702 699.877 27.6544 702.575 28.4841C704.112 29.4236 705.689 29.933 707.275 30.0021C712.854 30.0021 718.432 30.0021 724.011 30.0021C727.247 30.0021 730.12 31.0814 733.3 31.5874C734.745 31.5635 736.19 31.7776 737.623 32.2283C738.934 32.768 739.994 33.8811 741.319 34.3533C749.799 37.3554 763.048 37.7264 770.942 31.5536C775.192 28.0183 779.139 22.6342 782.588 15.6664C783.904 12.1974 785.644 9.8341 787.553 8.92012C790.993 6.86802 794.488 5.40277 798.013 4.53511C814.75 -0.389635 832.002 0.453569 849.185 0.453569C867.078 0.453569 887.26 -2.54844 903.229 8.95389C906.018 10.944 908.501 12.5292 911.29 14.0809C914.866 16.0548 918.53 16.9276 922.196 16.6782C932.964 16.6782 944.149 17.7577 954.86 16.341C967.691 14.6207 980.313 11.9897 993.089 9.59479C1005.35 7.36853 1017.58 5.78299 1029.84 3.72539C1042.1 1.66779 1054.23 2.00511 1066.63 1.83646C1073.6 1.83646 1080.49 3.48937 1087.24 4.87234C1092.33 5.88428 1097.17 7.77314 1102.39 7.73941C1126.78 7.73941 1151.2 8.14431 1175.44 6.39029C1179.18 6.08671 1182.67 4.66986 1186.49 4.77105C1190.31 4.87224 1193.11 3.72555 1196.87 3.25331C1200.03 2.88227 1203.34 3.55689 1206.55 3.25331C1215.76 2.84854 1225.05 1.06063 1234.27 0.352277C1246.25 -0.524733 1258.18 0.35236 1270.03 1.70161C1272.97 2.03892 1275.3 3.25328 1278.4 3.21955C1282.85 3.21955 1287.49 2.61245 1291.9 3.48946C1298.87 4.90616 1305.85 4.90615 1312.82 6.42405C1316.15 7.16613 1319.54 7.50344 1322.89 8.31299C1326.24 9.12253 1326.85 9.15618 1328.92 12.0233C1332.35 16.8132 1335.01 17.9601 1340.2 19.0395C1350.66 21.2657 1361.79 18.5335 1372.37 20.1189C1386.81 22.244 1402.53 21.5693 1417 20.726C1424.15 20.2875 1431.69 20.1526 1439.32 19.7141C1439.39 19.984 1439.43 20.2538 1439.49 20.5236C1440.64 25.7857 1441.76 31.0477 1442.86 36.3098C1443.8 40.6949 1444.7 45.1135 1445.57 49.4986L1446.45 53.9511C1444.12 53.9511 1441.8 54.221 1439.47 54.5583C1435.43 55.1317 1431.4 55.8401 1427.31 56.11C1423.56 56.3798 1420.02 56.1101 1416.28 55.7727C1409.99 55.1807 1403.69 55.451 1397.41 56.5823C1393.52 57.3581 1389.74 58.8421 1385.86 59.7866C1384.01 60.1913 1382.04 60.5961 1380.28 61.3045C1378.53 62.0129 1377.38 63.0585 1375.72 63.632C1372.77 64.4179 1369.89 66.2832 1367.17 69.1639C1366.35 70.2096 1365.14 70.9854 1364.9 72.537C1364.66 74.0887 1365.43 74.7633 1366.14 75.9101C1369.11 80.1265 1374.51 81.6781 1376.89 81.7456C1379.68 83.3647 1382.64 84.8488 1385.72 85.9282C1389.84 87.3112 1394.01 89.3014 1398.27 90.2121C1402.54 91.1229 1406.89 92.0337 1411.27 92.2361C1417.53 92.4722 1423.71 92 1429.95 91.5952C1437.55 91.0892 1444.91 89.1327 1452.26 87.4461C1452.56 89.4025 1452.88 91.3591 1453.2 93.2818L1449.86 93.8551C1447.65 94.5356 1445.42 94.6938 1443.2 94.3274C1441.23 93.9564 1439.33 94.0575 1437.34 94.0575C1435.71 94.0575 1434.55 94.3948 1433.03 94.6647C1432.5 94.6647 1431.77 94.6647 1431.24 94.6647C1430.45 94.6687 1429.66 94.8153 1428.87 95.1032C1426.54 95.7441 1423.73 95.508 1421.83 97.262C1421.19 97.6551 1420.63 98.6213 1420.27 99.9666C1419.91 101.312 1419.78 102.937 1419.89 104.514C1419.89 106.639 1419.43 109.506 1420.31 111.26C1421.19 113.203 1422.24 114.634 1423.38 115.443C1426.15 117.224 1428.98 118.509 1431.83 119.288C1434.45 120.03 1437.07 120.874 1439.63 121.751C1440.76 122.156 1441.52 122.729 1442.69 122.999C1443.87 123.269 1445.41 123.538 1446.77 123.876C1449.33 124.584 1451.72 125.664 1454.23 126.541C1455.47 126.945 1456.68 127.451 1457.85 127.991C1458.59 136.761 1459.15 145.599 1459.7 154.335C1460.76 170.863 1459.04 187.088 1454.63 203.077ZM1404.3 167.457C1407.08 166.269 1409.78 164.17 1412.33 161.216C1412.96 160.452 1413.48 159.284 1413.85 157.843C1414.1 156.831 1413.53 155.448 1412.96 156.359C1411.01 154.946 1409 154.063 1406.96 153.728C1405.07 153.289 1403.11 153.02 1401.3 152.311C1395.34 149.95 1388.94 149.377 1382.82 147.623C1379.29 146.611 1375.62 144.958 1372.32 143.305C1369.01 141.652 1365.53 140.775 1362.1 139.763C1360.25 139.223 1358.89 138.347 1356.96 137.942C1355.47 137.604 1354.29 136.829 1352.88 136.323C1352.07 136.019 1351.2 136.053 1350.39 135.749C1349.59 135.446 1348.82 134.838 1347.87 134.535C1346.14 133.972 1344.39 133.634 1342.64 133.523L1335.95 133.253C1334.27 133.253 1332.6 133.523 1330.94 133.253C1328.22 132.815 1325.61 131.769 1322.86 131.533C1320.12 131.297 1317.47 131.094 1314.76 130.791C1309.08 130.184 1303.39 130.116 1297.74 129.543C1295.63 129.367 1293.51 129.48 1291.4 129.88C1289.18 130.251 1287.02 130.082 1284.82 130.217C1283.42 130.217 1282.03 130.689 1280.63 131.06C1279.36 131.189 1278.1 131.584 1276.85 132.241C1275.46 133.253 1275.29 135.614 1275.54 137.065C1275.79 138.515 1277.12 140.101 1278.19 141.753C1279.92 144.162 1281.71 146.314 1283.55 148.196C1288.08 153.391 1294.7 156.73 1300.67 159.665C1304.86 161.689 1308.61 164.353 1312.63 166.681C1316.64 169.008 1321.52 170.661 1325.97 172.28C1333.41 174.979 1342.03 174.203 1349.68 174.034C1357.95 173.832 1366.25 174.034 1374.52 173.393C1377.41 173.191 1380.28 173.393 1383.13 172.887C1385.97 172.381 1389.45 172.719 1392.28 171.808C1396.38 170.425 1400.55 169.514 1404.3 167.457ZM1340.74 190.023C1344.47 191.372 1348.26 192.316 1352.11 193.126C1361.85 195.348 1371.64 195.754 1381.4 194.34C1379.86 192.485 1397.05 192.114 1392.92 185.705C1391.06 182.77 1387.94 182.636 1384.77 182.669H1374.8C1371.7 182.669 1368.71 182.096 1365.64 182.028C1359.45 181.86 1353 182.872 1346.89 183.884C1345.5 184.086 1335.93 184.929 1336.14 187.56C1336.21 188.909 1339.93 189.685 1340.74 190.023ZM1191.79 169.076C1193.67 170.644 1195.61 171.652 1197.59 172.078C1199.46 172.651 1201.4 173.09 1203.17 173.933C1208.97 176.665 1215.3 177.677 1221.3 179.836C1224.76 181.084 1228.28 183.007 1231.51 184.895C1234.75 186.784 1238.11 187.898 1241.48 189.112C1243.28 189.786 1244.58 190.765 1246.46 191.304C1247.95 191.709 1249.07 192.586 1250.45 193.193C1251.25 193.497 1252.11 193.564 1252.88 193.935C1253.64 194.306 1254.4 194.947 1255.33 195.285C1257.04 195.975 1258.75 196.437 1260.48 196.668C1262.71 196.904 1264.94 197.207 1267.15 197.41C1268.82 197.41 1270.51 197.41 1272.15 197.713C1274.83 198.354 1277.35 199.568 1280.1 200.007C1282.85 200.445 1285.46 200.817 1288.14 201.289C1293.71 202.301 1299.42 202.739 1305.04 203.684C1307.15 203.987 1309.27 203.987 1311.38 203.684C1313.62 203.448 1315.75 203.684 1317.98 203.684C1319.45 203.684 1320.77 203.38 1322.17 203.144C1323.45 203.164 1324.72 202.915 1325.99 202.402C1327.38 201.457 1327.74 199.299 1327.6 197.646C1327.47 195.993 1326.21 194.543 1325.26 192.789C1323.68 190.294 1322.03 188.04 1320.32 186.042C1316.14 180.578 1309.81 176.766 1303.96 173.427C1299.92 171.133 1296.38 168.232 1292.51 165.601C1288.65 162.97 1283.87 161.048 1279.53 159.125C1272.32 155.92 1263.66 156.123 1255.96 155.752C1247.69 155.381 1239.4 154.672 1231.13 154.672C1228.23 154.672 1225.37 154.335 1222.5 154.672C1219.63 155.01 1216.21 154.402 1213.31 155.111C1209.13 156.089 1204.94 156.73 1201.12 158.484C1198.21 159.503 1195.37 161.43 1192.67 164.218C1191.99 164.965 1191.39 166.128 1190.95 167.591C1190.7 168.671 1191.15 169.953 1191.79 169.076ZM944.707 150.726C945.088 149.566 945.424 148.324 945.711 147.015C946.06 145.228 945.32 143.642 945.209 142.057C945.135 140.645 944.864 139.337 944.442 138.347C943.856 136.761 943.786 134.973 943.298 133.489C942.391 131.364 941.293 129.771 940.09 128.834C939.037 128.074 937.959 127.521 936.869 127.182C935.474 126.608 934.079 125.697 932.81 124.854C929.933 122.875 927.008 121.332 924.051 120.233C919.37 118.911 914.664 118.19 909.951 118.074C903.759 117.602 897.65 118.647 891.471 118.647C887.497 118.647 883.438 118.884 879.463 118.647C876.074 118.31 872.699 117.838 869.296 117.534C858.138 116.556 846.73 116.522 835.572 117.062C824.777 117.568 813.955 118.614 803.188 119.491C798.474 119.896 793.718 120.604 789.059 121.582C782.937 122.864 776.507 124.078 770.552 126.102C763.83 128.362 753.997 131.567 751.026 139.021C747.777 147.218 753.578 153.795 759.102 159.058C763.894 163.178 768.855 166.05 773.899 167.625C780.37 170.155 787.135 172.179 793.927 173.494C813.552 177.424 833.256 178.551 852.936 176.867C869.672 175.35 886.618 174.236 903.145 171.032C912.713 169.109 922.796 167.457 931.569 162.835C934.573 161.494 937.54 159.703 940.453 157.472C941.611 156.426 944.637 154.099 942.824 154.403C943.513 153.375 944.146 152.139 944.707 150.726ZM1109.41 141.686C1106.59 139.899 1103.7 138.981 1100.79 138.954C1095.94 138.329 1091.09 138.397 1086.25 139.156C1082.21 139.667 1078.2 141.308 1074.32 144.047C1073.36 144.614 1072.43 145.381 1071.53 146.341C1071.32 146.813 1071.44 147.589 1071.33 148.095C1071.08 149.174 1070.38 150.321 1071.19 151.468C1072.65 152.247 1074.15 152.429 1075.63 152.008C1077.73 151.738 1079.49 151.434 1081.61 151.468C1086.48 151.468 1091.37 150.658 1096.25 150.051C1099.29 149.68 1102.33 149.309 1105.38 148.837C1107.34 148.83 1109.3 148.356 1111.23 147.42C1111.08 146.509 1110.56 145.801 1109.7 145.329C1113.85 145.059 1110.47 142.529 1109.41 141.686ZM1078.81 127.586C1080.84 125.799 1083.32 124.55 1085.22 122.729C1087.94 120.336 1090.74 118.497 1093.59 117.231C1095.28 116.283 1096.94 114.973 1098.54 113.318C1099.94 112.104 1101.33 111.159 1102.81 110.181C1102.08 108.949 1101.23 108.194 1100.34 107.988C1097.56 107.256 1094.76 107.064 1091.97 107.415C1089.99 107.415 1088.15 106.707 1086.14 106.74C1083.26 106.74 1080.56 106.167 1077.68 106.1C1071.51 106.1 1065.46 105.56 1059.34 104.986C1056.95 104.75 1054.54 105.155 1052.15 104.784C1049.77 104.413 1047.31 104.312 1044.78 104.312C1039.34 104.312 1033.74 103.873 1028.36 104.615C1026.18 104.885 1024.36 105.459 1022.25 105.998C1020.15 106.538 1017.77 106.639 1015.5 106.909C1009.32 107.719 1003.12 108.528 997.008 109.81C987.845 111.665 978.877 114.768 970.076 118.108C966.171 119.626 962.433 121.481 958.682 123.404C956.087 124.685 952.057 125.158 950.313 127.789C948.11 131.162 947.901 135.985 950.523 139.156C954.609 144.148 961.318 145.396 967.022 147.184C971.206 148.5 975.711 149.343 980.034 150.557C983.842 151.434 987.51 152.885 991.359 153.66C995.934 154.571 1000.47 155.111 1005.1 155.617C1010.34 156.19 1015.39 157 1020.66 156.629C1026.66 156.252 1032.65 155.126 1038.6 153.256C1042.64 151.873 1046.56 150.254 1050.56 148.769C1053.67 147.622 1056.71 146.307 1059.67 144.755C1062.25 143.737 1064.81 142.317 1067.31 140.505C1071.62 136.66 1074.51 131.567 1078.81 127.654V127.586ZM1113.99 102.423C1116.92 102.423 1119.71 101.883 1122.68 101.917C1124.76 101.917 1126.87 101.917 1128.92 101.917C1133.38 101.917 1137.84 100.939 1142.25 100.197C1147.58 99.2859 1152.57 97.9028 1157.59 96.0475C1158.97 95.6653 1160.34 95.0454 1161.68 94.1924C1162.59 93.5177 1162.79 92.9107 1162.86 92.0337C1163.38 91.859 1163.85 91.2516 1164.19 90.3194C1164.54 89.3872 1164.73 88.1903 1164.75 86.9403C1164.75 83.972 1163.07 81.9818 1161.18 79.9242C1157.56 76.271 1153.74 73.9952 1149.84 73.1779C1142.98 71.4914 1136.02 70.4457 1129 69.6362C1125.54 69.2989 1122.03 68.6917 1118.6 68.5568C1115.17 68.4219 1112.15 68.9279 1108.83 69.4676C1102.35 70.4795 1095.72 70.7831 1089.22 71.795C1082.73 72.807 1075.92 73.2791 1069.22 73.9874C1064.13 74.5271 1058.78 74.8982 1053.88 76.3487C1050.91 77.2257 1048.54 79.1145 1045.72 80.2614C1042.91 81.4082 1040.76 83.4658 1038.08 84.8825C1036.06 85.9316 1034.12 87.8265 1032.36 90.482C1030.75 92.8095 1031.85 95.1705 1033.9 96.8908C1037.09 98.8897 1040.36 100.121 1043.66 100.568C1046.45 101.242 1049.1 101.917 1051.85 102.457C1058.82 103.806 1066.55 103.03 1073.66 102.996C1081.26 102.996 1088.83 103.873 1096.42 103.671C1102.29 103.637 1108.16 102.794 1113.99 102.423ZM991.847 100.298C989.029 98.5065 986.128 97.5884 983.214 97.5655C978.382 96.9413 973.538 97.0089 968.709 97.7679C964.656 98.2793 960.641 99.9205 956.743 102.659C955.786 103.23 954.852 104.009 953.954 104.986C953.73 105.425 953.884 106.201 953.772 106.707C953.521 107.786 952.81 108.933 953.633 110.08C955.09 110.833 956.588 111.004 958.068 110.586C960.146 110.316 961.931 110.012 964.051 110.046C968.905 110.046 973.814 109.237 978.681 108.663C981.74 108.281 984.786 107.876 987.817 107.449C989.779 107.415 991.736 106.929 993.66 105.998C993.493 105.088 992.991 104.413 992.14 103.907C996.296 103.637 992.907 101.208 991.861 100.298H991.847ZM992.015 157.101C988.637 155.946 985.231 155.338 981.819 155.28C972.796 154.605 964.358 150.49 955.111 152.783C952.322 153.492 946.896 154.403 946.464 158.383C946.143 161.351 950.202 164.792 952.21 166.377C955.781 169.211 962.113 170.087 966.366 170.728C971.415 171.47 977.147 171.302 982.238 171.133C987.817 170.897 989.379 169.48 995.236 166.31L1000.94 164.724C1001.12 161.014 994.679 158.214 992.029 157.101H992.015ZM955.878 117.737C957.13 117.467 958.368 116.902 959.574 116.05C959.825 115.814 960.606 114.263 960.481 113.959C959.734 113.351 958.953 113.021 958.166 112.981C955.892 112.475 953.842 112.508 951.541 112.374C946.938 112.137 942.35 110.721 937.761 110.485C935.353 110.116 932.936 110.64 930.593 112.036C929.03 113.352 929.435 114.026 930.76 115.409C932.559 117.096 934.093 118.108 933.005 116.792C934.089 117.798 935.225 118.445 936.381 118.715C936.771 118.715 937.357 118.715 937.775 118.715C939.17 118.715 940.565 119.322 941.959 119.39C946.61 119.696 951.263 119.143 955.878 117.737ZM785.726 112.003C792.588 114.768 800.426 114.195 807.874 114.195H833.801C841.807 114.195 849.882 114.465 857.873 114.195C861.653 114.195 865.265 113.554 869.031 113.554H877.176C885.711 113.554 894.135 113.858 902.476 112.475C904.024 112.205 905.725 112.036 907.148 111.598C908.194 111.26 909.365 110.417 910.495 110.046C914.679 108.562 919.156 107.955 923.563 106.943C926.938 106.167 929.881 106.167 933.438 106.167H940.411C942.898 106.213 945.383 105.807 947.845 104.953C947.008 105.796 948.305 104.953 949.421 104.211C951.081 103.199 952.657 102.254 954.33 101.31C956.004 100.365 960.23 97.0595 959.044 95.238C957.496 92.8768 952.643 91.8649 949.881 90.8193C947.705 89.9422 945.432 89.0653 943.061 88.5256C938.333 87.3787 933.103 87.716 928.236 87.0076C921.806 86.0631 915.683 84.9838 909.031 85.4224C901.555 85.8946 894.094 86.1644 886.618 86.6704C872.671 87.6823 858.501 87.7835 844.484 87.7498C831.486 87.7498 817.985 88.1207 805.14 89.7398C801.95 90.003 798.769 90.7239 795.615 91.8987C793.71 92.8238 791.843 94.1558 790.036 95.8789C787.721 97.7341 785.712 99.7917 783.509 101.748C782.328 102.556 781.221 103.895 780.245 105.695C779.269 108.697 782.7 110.754 785.782 112.003H785.726ZM882.769 74.2236C886.353 78.4737 893.173 79.5869 898.347 79.7555C901.332 79.7555 904.219 80.3964 907.176 80.3627C910.132 80.3289 912.754 81.0035 915.544 80.9698H928.752C933.814 80.9698 938.598 82.319 943.619 82.7912C947.092 83.0948 950.272 85.6923 953.382 86.9741C955.729 87.4225 958.059 88.2791 960.355 89.5375C961.915 91.0884 963.524 92.3294 965.167 93.248C967.175 94.1587 968.5 93.6528 969.449 91.5614C970.127 89.8848 970.945 88.5742 971.847 87.716C971.31 87.055 970.89 85.9464 970.665 84.5949C970.439 83.2434 970.423 81.7402 970.62 80.3627C971.122 77.6305 973.549 76.9895 975.557 76.0788C977.105 75.2355 978.57 74.6284 980.202 74.0212C981.596 73.5152 982.503 72.8407 983.758 72.1998C985.013 71.5589 986.185 71.2891 987.384 70.5132C988.777 69.8482 990.138 68.8306 991.443 67.4774C993.13 64.9812 993.13 62.2152 991.736 59.6179C988.863 54.2547 984.511 52.7031 978.654 52.6693C970.969 52.6693 963.312 54.6933 955.683 55.7727C952.127 56.3124 948.542 56.7847 944.958 57.0208C942.601 57.0208 940.272 57.5942 937.901 57.6617C935.809 57.6617 933.717 57.493 931.68 57.6617C927.929 58.1002 924.289 58.1338 920.523 58.1338C916.339 58.1338 912.28 58.471 908.11 58.7409C903.94 59.0107 899.603 59.8203 895.321 60.4275C892.054 60.6993 888.813 61.9341 885.67 64.1042C883.647 65.6221 882.755 66.8702 882.239 69.3663C881.792 71.4914 881.388 72.6382 882.769 74.2236ZM974.818 80.3627C973.674 81.6445 972.768 82.96 973.019 84.7815C973.172 85.9958 973.312 86.0295 974.302 86.6366C976.032 87.6823 978.026 88.2894 979.783 89.3688C981.317 90.347 982.782 91.4264 984.274 92.5058C986.411 94.037 988.6 95.1093 990.815 95.7103C995.822 97.1945 1000.9 98.2064 1006.07 99.0834C1014.56 100.731 1023.09 101.08 1031.6 100.129C1031.78 99.5557 1030.58 97.0596 1030.35 96.2164C1030.13 95.3731 1029.28 93.9225 1029.2 92.472C1029.04 89.3013 1030.98 86.5691 1033.1 84.4778C1034.5 83.0948 1035.05 82.0155 1034.26 80.1265C1033.46 78.2376 1030.69 76.0452 1028.5 75.1682C1019.12 71.9467 1009.62 71.1438 1000.17 72.7732C991.624 73.7851 981.136 73.3804 974.804 80.4302L974.818 80.3627ZM1025.03 65.5884C1025.03 64.1717 1022.4 63.0586 1021.29 62.6538C1019.88 62.1993 1018.46 61.9513 1017.04 61.9116C1013.27 61.6755 1009.74 60.0565 1005.88 60.9673C1004.69 61.2371 1002.43 61.608 1002.27 63.1597C1002.1 64.7113 1003.83 65.6222 1004.65 66.2293C1006.59 67.2603 1008.57 67.8252 1010.56 67.9159C1012.68 68.2532 1015.08 68.152 1017.2 68.0845C1019.04 68.0149 1020.86 67.3801 1022.63 66.1956L1025.03 65.5884ZM994.595 44.8774C997.273 49.9371 1003.53 53.4452 1008.43 55.6715C1011.68 57.1894 1014.62 58.2687 1018.1 59.0446C1020.98 59.643 1023.85 60.6112 1026.69 61.9454C1028.9 63.1934 1031.15 64.3403 1033.38 65.4871C1034.78 66.2629 1036.49 66.6678 1037.82 67.646C1039.66 68.9952 1041.16 70.4795 1041.74 67.9496C1041.94 68.8297 1042.18 69.655 1042.46 70.4119C1043.86 70.4119 1045.18 70.6818 1046.56 70.8842C1049.91 71.3565 1053.2 70.8841 1056.52 70.5468C1059.84 70.2095 1063.27 70.547 1066.64 70.3109C1070.49 69.9061 1074.32 69.2987 1078.14 68.8602C1089.29 67.6122 1100.2 66.0944 1111.08 63.4971C1114.75 62.4346 1118.35 60.1649 1121.76 56.7509C1124.04 54.8282 1126.81 53.715 1129.11 51.826C1131.18 50.1712 1133.21 48.2112 1135.18 45.9569C1136.03 45.0124 1137.34 43.6631 1137.37 42.3138C1137.45 39.4467 1134.05 37.4566 1131.9 36.4109C1129.06 35.3527 1126.2 34.6996 1123.32 34.4546C1119.45 33.8137 1115.64 33.139 1111.69 32.9029C1102.06 32.397 1092.39 31.6212 1082.75 31.52C1076.62 31.52 1070.58 31.3176 1064.43 31.52C1058.28 31.7224 1051.87 32.1945 1045.57 32.5993C1035.27 33.3189 1024.96 33.971 1014.65 34.5557C1010.26 35.1291 989.602 35.5339 994.595 44.8774ZM1134.4 55.1992C1133 55.4353 1123.45 56.245 1123.66 58.9097C1123.77 60.2927 1127.41 61.0347 1128.3 61.3383C1132.01 62.6875 1135.81 63.6319 1139.67 64.4415C1149.41 66.6973 1159.2 67.1034 1168.96 65.6559C1167.42 63.8345 1184.59 63.4633 1180.48 57.0543C1178.61 54.1197 1175.49 53.9512 1172.33 53.9849H1162.26C1159.17 53.9849 1156.18 53.4115 1153.12 53.344C1146.95 53.2091 1140.49 54.221 1134.4 55.1992ZM1175.36 66.2631C1174.4 66.2912 1173.44 66.4601 1172.49 66.7689C1171.46 67.005 1170.55 66.7689 1169.7 67.1737C1168.04 67.882 1166.91 69.4674 1169.1 70.5468C1167.7 72.1996 1165.75 73.9201 1166.07 76.2138C1166.56 80.0592 1171.99 81.3408 1174.97 81.7793C1178.58 82.2853 1182.15 82.8588 1185.78 83.2973C1187.76 83.4252 1189.73 83.8307 1191.69 84.5115C1192.63 84.9163 1193.44 85.5236 1194.48 85.8609C1195.7 86.2656 1197.02 86.3668 1198.29 86.6704C1200.03 87.0752 1201.73 87.851 1203.46 88.3569C1206.25 89.234 1209.29 89.3688 1212.17 89.7736C1215.04 90.1784 1217.75 90.2458 1220.53 90.2121C1222.99 90.2121 1225.04 90.5157 1227.42 90.853C1232.08 91.4602 1236.69 91.359 1241.45 91.4602C1242.33 91.4602 1242.85 91.7301 1243.28 90.8868C1243.71 90.0435 1243.17 89.47 1242.96 88.9641C1242.27 87.5985 1241.51 86.4638 1240.7 85.591C1240.02 84.7477 1239.04 84.1405 1238.46 83.2297C1237.82 82.0987 1237.26 80.7196 1236.81 79.1484C1235.78 77.0293 1234.62 75.3213 1233.37 74.0887C1229.15 69.3517 1224.58 66.7681 1219.93 66.4992C1210.76 65.0151 1201.26 65.757 1192.04 65.757C1186.27 65.6558 1180.94 66.3643 1175.36 66.2631ZM1241.82 84.6802C1242.58 86.0631 1245.57 86.6367 1246.85 87.1764C1248.99 88.0535 1251.13 88.7954 1253.27 89.605C1255.65 90.482 1257.59 92.0336 1259.85 93.1805C1261.66 94.1249 1263.57 94.7996 1265.43 95.7778C1267.94 97.1271 1270.42 98.5101 1273.02 99.5895C1275.22 100.568 1277.41 101.074 1279.59 101.917C1288.22 98.5438 1297.35 96.2499 1306.08 93.3153C1310.72 91.7637 1315.47 90.6507 1320.03 88.9978C1321.22 88.5593 1325.32 87.9522 1322.97 86.0633C1322.51 85.7259 1321.13 85.3548 1320.58 85.1524C1319.26 84.6465 1317.95 84.6465 1316.64 84.1068C1314.56 83.2635 1312.46 82.3866 1310.41 81.4759C1306.32 79.7918 1302.17 79.0238 1298.02 79.182C1291.3 79.182 1284.68 79.3845 1277.97 79.7218C1271.71 80.0591 1265.42 81.1048 1259.11 81.0373C1254.63 81.0373 1249.11 80.0928 1244.87 81.6107C1243.41 82.1841 1240.8 82.9936 1241.78 84.6802H1241.82ZM1272.88 111.665C1273.14 110.012 1275.67 107.516 1274.36 106.066C1273.36 105.473 1272.34 105.067 1271.32 104.852C1270.43 104.421 1269.55 103.869 1268.69 103.199C1267.3 102.288 1265.81 101.141 1264.34 100.467C1261.05 99.2958 1257.73 98.743 1254.41 98.8135C1245.15 98.3076 1235.74 97.397 1226.6 95.8116C1221.73 94.9346 1216.7 94.4623 1211.78 94.0913C1207.08 93.754 1202.12 93.113 1197.45 93.3829C1188.67 93.8551 1179.54 95.6428 1171.05 98.004C1161.75 100.601 1152.4 102.659 1142.92 104.413C1134.34 105.998 1125.57 106.977 1117.16 109.304C1112.37 110.368 1107.63 112.514 1103 115.713C1102.06 116.421 1101.02 116.86 1100.03 117.467C1098.97 117.925 1097.91 118.522 1096.87 119.255C1095.43 120.338 1094.18 122.515 1093.3 125.461C1093.2 125.845 1093.13 126.273 1093.1 126.719C1093.08 127.165 1093.08 127.621 1093.13 128.059C1093.34 129.374 1094.08 129.914 1094.93 130.959C1098.36 135.176 1103.02 136.592 1108.04 137.908C1116.32 140.101 1125.47 139.662 1133.94 140.202C1140.28 140.573 1146.49 140.64 1152.91 140.674C1157.73 140.674 1162.56 140.134 1167.38 140.067C1171.57 140.067 1175.75 139.561 1179.81 139.257C1184.41 138.954 1189.07 138.751 1193.64 138.043C1198.65 137.267 1203.41 136.356 1208.34 135.108C1212.12 134.164 1215.86 133.523 1219.5 132.039C1226.27 129.307 1233.6 128.328 1240.42 125.765C1247.24 123.201 1254.54 121.447 1260.87 118.074C1263 116.86 1265.35 116.286 1267.62 115.443C1270.41 114.431 1272.65 113.251 1275.33 111.766C1272.51 111.699 1272.67 111.665 1272.84 111.632L1272.88 111.665ZM1198.96 149.107C1204.54 149.849 1209.98 150.523 1215.58 150.49C1220.12 150.49 1224.66 150.827 1229.15 151.266C1234.02 151.704 1238.92 151.974 1243.76 151.67C1245.69 151.67 1247.62 151.097 1249.56 151.063C1250.95 151.063 1252.35 151.266 1253.74 151.063C1256.73 150.456 1259.91 149.41 1262.95 149.343C1264.59 149.343 1267.3 149.781 1267.73 148.128C1267.41 146.789 1266.96 145.638 1266.43 144.755C1265.76 143.777 1264.61 143.305 1263.84 142.428C1262.5 141.176 1261.28 139.296 1260.24 136.896C1259.85 135.193 1259.38 133.598 1258.85 132.14C1258.07 130.579 1257.17 129.43 1256.2 128.767C1253.41 126.473 1248.79 127.215 1245.56 128.025C1243.76 128.43 1241.98 128.632 1240.17 129.239C1238.36 129.846 1236.73 129.812 1234.98 130.453C1233.24 131.094 1231.44 131.567 1229.81 132.376C1227.88 133.321 1225.81 133.523 1223.76 134.063C1222.08 134.501 1220.38 134.67 1218.68 135.344C1217.54 135.817 1216.56 135.715 1215.42 135.952C1215 135.952 1214.68 136.356 1214.38 136.458C1213.62 136.66 1212.86 136.458 1212.08 136.458C1210.16 136.829 1208.53 137.402 1206.73 137.84C1204.41 138.414 1202.01 139.089 1199.63 139.662C1197.01 140.337 1194.36 141.079 1191.75 141.854C1190.38 142.02 1189.03 142.528 1187.7 143.372C1183.44 147.656 1197.34 148.871 1198.85 149.073L1198.96 149.107ZM1004.2 195.318C1009 199.431 1013.97 202.314 1019.02 203.92C1025.47 206.45 1032.25 208.44 1039.03 209.755C1058.65 213.685 1078.36 214.812 1098.04 213.128C1114.78 211.611 1131.72 210.531 1148.25 207.259C1157.82 205.404 1167.91 203.886 1176.67 199.096C1179.68 197.783 1182.66 195.991 1185.57 193.733C1186.71 192.687 1189.67 190.36 1187.93 190.664C1188.61 189.649 1189.24 188.424 1189.8 187.021C1190.18 185.869 1190.52 184.626 1190.8 183.31C1191.16 181.522 1190.42 179.937 1190.3 178.352C1190.23 176.956 1189.97 175.657 1189.56 174.675C1188.94 173.056 1188.89 171.302 1188.4 169.784C1187.5 167.673 1186.4 166.092 1185.21 165.163C1184.15 164.388 1183.06 163.835 1181.96 163.51C1180.56 162.936 1179.17 161.992 1177.9 161.183C1175.02 159.191 1172.1 157.647 1169.14 156.561C1164.46 155.281 1159.76 154.583 1155.05 154.47C1148.85 154.031 1142.77 155.077 1136.56 155.044C1132.6 155.044 1128.53 155.28 1124.57 155.044C1121.16 154.706 1117.79 154.234 1114.4 153.93C1103.24 152.918 1091.82 152.918 1080.68 153.458C1069.88 153.964 1059.06 155.043 1048.28 155.92C1043.56 156.291 1038.81 157.034 1034.16 157.978C1028.03 159.26 1021.61 160.474 1015.65 162.498C1008.93 164.758 999.086 167.996 996.129 175.417C992.893 183.479 998.695 190.056 1004.2 195.318ZM808.753 208.271C808.962 209.62 809.701 210.126 810.552 211.172C813.983 215.388 818.641 216.805 823.676 218.121C831.946 220.313 841.109 219.875 849.575 220.415C855.907 220.786 862.127 220.853 868.543 220.887C873.368 220.887 878.18 220.347 883.006 220.279C887.19 220.279 891.374 219.774 895.432 219.504C900.035 219.166 904.707 218.964 909.282 218.256C914.275 217.514 919.044 216.569 923.968 215.321C927.747 214.377 931.485 213.736 935.125 212.251C941.876 209.519 949.212 208.541 956.046 205.977C962.88 203.414 970.216 201.795 976.534 198.287C978.681 197.073 981.011 196.499 983.298 195.656C986.087 194.644 988.319 193.463 991.01 192.013C990.174 192.141 989.336 192.141 988.5 192.013C988.765 190.292 991.289 187.83 989.978 186.38C988.98 185.784 987.963 185.378 986.938 185.165C985.948 184.761 985.237 184.086 984.316 183.513C982.921 182.602 981.429 181.455 979.965 180.78C976.676 179.626 973.357 179.074 970.034 179.127C960.788 178.621 951.373 177.711 942.224 176.125C937.357 175.282 932.322 174.776 927.413 174.405C922.713 174.068 917.761 173.427 913.075 173.697C904.289 174.169 895.167 175.99 886.688 178.352C877.385 180.915 868.027 182.973 858.543 184.727C849.966 186.312 841.207 187.29 832.783 189.651C827.992 190.692 823.252 192.826 818.627 196.027C817.679 196.735 816.646 197.207 815.656 197.781C814.666 198.354 813.313 198.826 812.49 199.568C811.059 200.636 809.81 202.803 808.934 205.741C808.748 206.503 808.684 207.403 808.753 208.271ZM606.69 215.625C606.987 216.913 607.332 218.132 607.722 219.268C608.283 220.669 608.916 221.893 609.605 222.911C607.847 222.742 610.818 224.934 611.948 225.98C614.868 228.226 617.845 230.018 620.86 231.343C629.605 235.965 639.716 237.651 649.284 239.54C665.769 242.913 682.756 243.857 699.492 245.342C719.172 247.042 738.877 245.915 758.502 241.969C765.294 240.653 772.058 238.595 778.53 236.099C783.535 234.538 788.458 231.7 793.216 227.633C798.794 222.337 804.54 215.793 801.291 207.596C798.334 200.142 788.516 196.938 781.765 194.644C775.81 192.687 769.408 191.271 763.258 190.158C758.627 189.179 753.871 188.471 749.157 188.1C738.362 187.223 727.568 186.144 716.773 185.638C705.615 185.098 694.179 185.132 683.035 186.11C679.646 186.413 676.271 186.919 672.882 187.223C668.907 187.594 664.834 187.223 660.86 187.223C654.681 187.223 648.586 186.211 642.394 186.65C637.687 186.76 632.985 187.458 628.308 188.741C625.346 189.816 622.416 191.348 619.535 193.328C618.252 194.138 616.899 195.116 615.49 195.656C614.388 195.969 613.299 196.533 612.241 197.342C611.038 198.263 609.94 199.845 609.033 201.963C608.559 203.549 608.489 205.337 607.889 206.854C607.468 207.83 607.202 209.13 607.136 210.531C607.08 212.521 606.327 213.837 606.69 215.625ZM223.29 150.254C223.848 150.254 224.601 150.422 225.117 150.254C225.354 150.108 225.586 149.928 225.814 149.714C228.129 149.14 230.57 148.668 232.857 147.893C238.952 145.936 245.619 145.497 251.923 144.216C254.043 143.777 256.344 144.216 258.492 144.216H266.86C273.317 144.216 279.621 145.261 286.037 145.936C292.215 146.509 298.463 147.926 304.67 147.926C307.766 147.926 311.797 147.926 314.098 145.464C314.937 144.645 315.622 143.109 316.023 141.146C316.605 139.31 317.114 137.345 317.543 135.277C318.101 131.904 317.361 128.531 315.297 125.933C312.353 122.295 309.166 119.943 305.883 118.985C304.035 118.316 302.172 117.911 300.304 117.77C298.101 117.77 295.981 117.399 293.763 117.163C290.472 116.893 287.264 116.455 283.931 116.522C279.328 116.522 274.81 117.197 270.179 117.163C261.518 117.163 252.913 117.163 244.308 118.243C235.702 119.322 227.069 118.917 218.45 119.794C211.848 120.3 205.271 121.979 198.771 124.82C195.948 125.829 193.153 127.26 190.403 129.104C188.94 130.068 187.573 131.744 186.386 134.029C185.089 136.862 185.633 138.616 188.116 140.303C193.87 143.876 199.732 146.346 205.647 147.69C211.226 149.208 216.693 150.557 222.383 150.76C221.769 150.692 222.606 150.254 223.29 150.254ZM412.73 133.084C416.566 132.241 420.387 131.297 424.097 129.948C424.99 129.644 428.63 128.902 428.741 127.519C428.951 124.854 419.383 124.146 418.002 123.808C411.88 122.83 405.45 121.818 399.244 121.987C396.175 121.987 393.191 122.661 390.081 122.628H380.025C376.873 122.628 373.749 122.628 371.88 125.63C367.766 132.072 384.934 132.376 383.4 134.265C393.175 135.712 402.981 135.318 412.73 133.084ZM387.556 155.617C387.562 156.87 387.761 158.073 388.114 158.99C388.445 159.967 388.92 160.595 389.439 160.744C389.523 161.655 389.704 162.228 390.625 162.903C391.971 163.756 393.342 164.376 394.725 164.758C399.816 166.613 404.809 168.131 410.136 168.907C414.543 169.649 418.993 170.526 423.456 170.627C425.548 170.627 427.64 170.627 429.704 170.627C432.647 170.627 435.464 170.998 438.393 171.201C444.236 171.504 450.108 172.348 455.952 172.516C463.539 172.752 471.098 171.842 478.699 171.875C485.826 171.875 493.511 172.651 500.526 171.268C503.315 170.762 505.993 170.121 508.699 169.447C511.995 168.968 515.264 167.726 518.462 165.736C520.512 164.05 521.614 161.655 519.982 159.327C518.23 156.671 516.299 154.776 514.278 153.728C511.6 152.311 509.452 150.355 506.635 149.107C503.818 147.859 501.447 146.071 498.448 145.194C493.511 143.777 488.169 143.373 483.106 142.833C476.412 142.124 469.745 141.686 463.107 140.674C456.468 139.662 449.982 139.325 443.483 138.313C440.206 137.773 437.11 137.301 433.79 137.402C430.471 137.503 426.817 138.144 423.372 138.515C416.398 139.257 409.425 140.337 402.549 142.057C398.648 142.871 394.823 145.147 391.21 148.803C389.23 150.658 387.556 152.649 387.556 155.617ZM383.372 139.224C385.562 138.077 384.432 136.491 382.772 135.85C381.866 135.479 380.959 135.85 379.913 135.446C378.965 135.147 378.01 134.989 377.054 134.973C371.475 134.973 366.106 134.333 360.541 134.333C351.28 134.333 341.782 133.59 332.647 135.075C328.002 135.335 323.429 137.919 319.216 142.664C317.964 143.918 316.798 145.624 315.758 147.724C315.315 149.302 314.763 150.683 314.126 151.805C313.54 152.716 312.55 153.357 311.866 154.166C311.053 155.088 310.297 156.28 309.621 157.708C309.412 158.18 309.035 158.99 309.3 159.597C309.565 160.204 310.235 160.17 311.127 160.137C315.869 160.137 320.472 160.137 325.158 159.563C327.543 159.226 329.593 158.922 332.048 158.922C334.837 158.922 337.626 158.922 340.416 158.484C343.205 158.045 346.343 157.944 349.133 157.101C350.876 156.561 352.577 155.785 354.321 155.381C355.562 155.043 356.887 154.976 358.128 154.571C359.105 154.234 359.886 153.627 360.848 153.222C362.808 152.556 364.783 152.151 366.761 152.008C370.374 151.569 373.958 150.996 377.556 150.49C380.555 150.051 385.924 148.77 386.468 144.924C386.747 142.394 384.851 140.876 383.4 139.224H383.372ZM310.653 153.289C311.629 151.603 308.993 150.759 307.515 150.254C303.331 148.702 297.752 149.613 293.247 149.68C286.985 149.68 280.695 148.668 274.405 148.331C267.711 148.027 261.072 147.825 254.349 147.791C250.205 147.634 246.064 148.402 241.979 150.085C239.914 151.029 237.794 151.873 235.73 152.716C234.433 153.289 233.122 153.289 231.797 153.795C230.995 153.979 230.199 154.283 229.412 154.706C227.055 156.561 231.17 157.202 232.341 157.607C236.958 159.26 241.714 160.373 246.288 161.925C255.089 164.859 264.21 167.119 272.857 170.526C275.033 169.716 277.222 169.143 279.412 168.232C282.02 167.085 284.489 165.736 287.013 164.387C288.812 163.409 290.723 162.734 292.592 161.79C294.851 160.643 296.776 159.091 299.161 158.214C301.309 157.405 303.456 156.662 305.576 155.785C306.873 155.178 309.858 154.672 310.653 153.289ZM252.592 110.923C257.195 111.733 261.713 111.53 266.372 111.53C270.388 111.53 274.28 110.923 278.282 110.957C281.643 110.957 284.837 111.395 288.143 111.53C291.448 111.665 294.726 112.542 298.031 112.812C302.633 113.02 307.217 114.24 311.727 116.455C315.278 118.748 318.774 121.507 322.201 124.719C323.677 126.038 325.18 127.164 326.706 128.092C329.244 129.325 331.829 129.913 334.419 129.846C335.813 129.846 337.208 130.015 338.603 129.846C339.997 129.678 341.392 129.239 342.787 129.172C344.795 129.172 346.817 129.172 348.84 129.172C350.862 129.172 352.396 128.598 354.209 128.531C361.671 128.058 366.427 121.042 373.289 118.411C378.19 116.969 383.121 116.214 388.058 116.151C391.099 115.949 394.014 114.903 397.096 114.903C398.925 114.97 400.754 114.813 402.577 114.431C404.864 113.824 407.389 113.891 408.993 111.699C409.899 110.485 410.206 109 411.224 107.82C412.911 106.125 414.656 104.793 416.44 103.84C422.019 100.264 428.239 99.151 434.362 97.0934C435.656 96.6518 436.937 96.0096 438.197 95.1707C439.592 94.2262 440.722 93.0456 441.977 91.7976C445.858 94.1896 449.814 95.8029 453.804 96.6211C457.677 97.2451 461.563 97.2451 465.436 96.6211C467.109 96.3175 473.901 93.248 469.815 91.5614C467.974 90.7856 466.175 90.0098 464.236 89.4026C457.639 87.1763 449.355 86.4005 443.316 90.6506C442.842 90.988 442.395 91.3253 441.921 91.6963C440.987 91.1903 440.024 90.7181 439.048 90.2459C431.545 86.6704 422.953 86.5692 414.864 85.6585C405.101 84.5454 395.339 83.3984 385.478 82.5888H384.599C376.957 81.9817 369.258 81.9818 361.629 81.4759C354.655 81.0374 347.584 80.4976 340.527 80.1941C323.554 79.4857 306.525 79.4856 289.565 80.7337C283.749 81.1722 278.003 82.1842 272.201 82.7239C267.459 83.1287 262.927 83.6008 258.255 84.7139C253.582 85.827 249.886 87.3451 245.633 89.0316C243.875 89.7062 242.746 90.246 242.09 92.0337C241.435 93.8215 242.202 95.0693 243.22 96.6884C244.293 98.445 245.474 99.7774 246.72 100.635C248.251 101.689 249.751 102.985 251.211 104.514C251.951 105.391 252.843 106.1 253.582 106.977C254.545 108.495 254.322 109.675 252.564 110.923H252.592ZM469.648 100.5C460.01 100.5 450.359 101.343 440.708 101.849C436.761 102.086 432.967 102.76 429.076 103.401C426.208 103.646 423.349 104.299 420.513 105.357C418.365 106.369 414.934 108.393 415.046 111.26C415.046 112.61 416.44 113.959 417.221 114.903C419.2 117.149 421.23 119.12 423.302 120.806C425.603 122.662 428.379 123.775 430.652 125.697C434.07 129.111 437.664 131.381 441.335 132.444C452.214 135.041 463.176 136.559 474.278 137.84C478.099 138.245 481.921 138.886 485.77 139.257C489.117 139.561 492.507 139.257 495.882 139.493C499.257 139.729 502.493 140.303 505.854 139.831C507.248 139.831 508.559 139.325 509.954 139.392C510.228 138.618 510.471 137.782 510.679 136.896C511.237 139.426 512.758 137.942 514.599 136.592C515.923 135.648 517.569 135.209 519.02 134.467C521.265 133.287 523.511 132.14 525.728 130.892C528.568 129.553 531.436 128.596 534.319 128.025C537.778 127.08 540.721 125.933 543.985 124.652C548.88 122.392 555.142 118.884 557.806 113.858C562.813 104.48 542.144 104.076 537.764 103.738C527.462 103.131 517.155 102.49 506.844 101.816C500.554 101.377 494.292 100.939 487.988 100.736C481.684 100.534 475.77 100.433 469.648 100.5ZM527.402 134.231L529.787 134.872C531.555 136.048 533.378 136.672 535.212 136.728C537.332 136.728 539.731 136.896 541.837 136.728C543.828 136.608 545.808 136.009 547.75 134.94C548.587 134.332 550.289 133.017 550.149 131.87C550.01 130.723 547.722 129.947 546.537 129.678C542.674 128.801 539.159 130.386 535.379 130.622C533.952 130.662 532.527 130.91 531.112 131.364C530.01 131.735 527.304 132.848 527.388 134.265L527.402 134.231ZM552.241 141.315C542.796 139.674 533.305 140.466 523.929 143.676C521.739 144.553 519.131 146.307 518.169 148.634C517.207 150.962 517.946 151.603 519.326 152.986C521.432 155.077 523.385 157.809 523.218 160.98C523.218 162.43 522.437 163.443 522.074 164.724C521.711 166.006 520.679 168.097 520.833 168.671C529.341 169.61 537.866 169.249 546.356 167.591C551.516 166.849 556.593 165.871 561.613 164.218C563.833 163.592 566.023 162.462 568.155 160.845C569.633 159.766 571.097 158.686 572.645 157.708C574.403 156.663 576.397 156.022 578.113 154.976C579.103 154.369 579.256 154.335 579.41 153.155C579.661 151.299 578.74 149.984 577.597 148.702C571.251 141.99 560.777 142.394 552.227 141.349L552.241 141.315ZM558.74 174.439C560.66 175.373 562.612 175.847 564.57 175.856C567.625 176.328 570.665 176.733 573.719 177.104C578.559 177.711 583.482 178.52 588.35 178.486C590.47 178.486 592.241 178.79 594.319 179.026C595.803 179.461 597.307 179.29 598.768 178.52C599.591 177.508 598.88 176.361 598.628 175.147C598.517 174.641 598.629 173.865 598.419 173.427C597.518 172.467 596.585 171.688 595.63 171.099C591.734 168.351 587.717 166.721 583.664 166.242C578.84 165.449 574 165.381 569.173 166.04C566.253 166.029 563.346 166.948 560.526 168.772C559.466 169.514 556.09 172.145 560.247 172.145C559.382 172.887 558.908 173.562 558.726 174.472L558.74 174.439ZM606.955 174.81H612.087C614.523 174.663 616.96 174.91 619.381 175.552C622.631 176.564 625.867 177.205 629.005 178.655C629.842 179.06 630.706 179.869 631.487 180.207C632.519 180.645 633.789 180.814 634.918 181.084C641.069 182.467 647.275 182.163 653.579 182.163H659.562C662.352 182.163 665.016 182.703 667.805 182.804C673.705 183.007 679.646 182.804 685.56 182.804H704.653C710.162 182.804 715.936 183.344 720.985 180.578C723.258 179.364 725.838 177.205 725.015 174.304C724.348 172.587 723.534 171.24 722.63 170.357C720.999 168.401 719.52 166.377 717.819 164.488C716.498 162.747 715.092 161.41 713.635 160.508C711.336 159.36 709.005 158.638 706.661 158.349C697.191 156.73 687.233 156.325 677.652 156.393C667.317 156.393 656.899 156.393 646.62 155.313C641.041 154.773 635.602 154.537 630.079 154.031C625.356 153.868 620.634 154.386 615.937 155.583C612.352 156.325 608.503 155.988 605.016 157.101C603.245 157.674 601.599 158.518 599.981 159.428C597.931 160.609 594.403 161.486 593.231 163.847C592.352 165.702 595.463 168.941 596.69 169.919C597.917 170.897 599.103 171.808 600.316 172.82C601.153 173.528 602.101 174.405 601.488 173.562C603.284 174.417 605.11 174.847 606.941 174.844L606.955 174.81ZM560.93 136.12C562.248 137.453 563.617 138.47 565.017 139.156C566.202 139.932 567.401 140.168 568.643 140.843C569.884 141.517 570.818 142.192 572.199 142.698C573.817 143.271 575.295 143.878 576.83 144.722C578.824 145.801 581.279 146.273 581.781 149.005C581.975 150.388 581.959 151.894 581.733 153.249C581.508 154.605 581.089 155.72 580.553 156.393C581.399 157.273 582.159 158.571 582.785 160.204C583.395 161.297 584.105 162.021 584.855 162.314C585.605 162.608 586.373 162.462 587.094 161.891C588.738 160.978 590.347 159.737 591.906 158.18C594.203 156.936 596.533 156.079 598.88 155.617C602.046 154.335 605.225 151.738 608.642 151.434C613.649 150.996 618.405 149.579 623.51 149.613C627.903 149.613 632.31 149.613 636.717 149.613C639.507 149.613 642.296 148.904 645.086 148.972C647.875 149.039 650.957 148.432 653.942 148.365C659.102 148.365 665.936 147.083 669.507 142.799C670.901 141.18 670.483 140.033 670.078 138.077C669.562 135.581 668.684 134.332 666.648 132.815C663.498 130.661 660.253 129.427 656.982 129.138C652.701 128.497 648.531 127.721 644.207 127.451C639.883 127.182 635.978 126.81 631.766 126.844C628.001 126.844 624.361 126.844 620.609 126.338C618.489 126.102 616.425 126.338 614.375 126.338C612.018 126.338 609.688 125.832 607.317 125.697C603.733 125.461 600.163 124.989 596.592 124.449C589.019 123.37 581.251 121.312 573.608 121.346C567.778 121.346 563.427 122.931 560.553 128.295C559.27 130.892 559.27 133.658 560.93 136.154V136.12ZM669.716 150.22C676.689 152.514 684.193 153.289 691.431 153.897C695.099 154.234 698.6 154.672 702.296 154.537C704.416 154.537 706.48 153.93 708.572 153.863C710.943 153.863 713.286 153.863 715.657 153.863C724.025 153.053 732.937 153.593 740.636 149.748C742.686 148.702 743.341 146.375 742.742 144.216C741.459 139.527 736.229 138.481 732.17 138.009C725.866 137.267 719.618 137.739 713.3 137.132C707.261 136.525 701.152 136.795 695.169 136.795C691.515 136.795 687.986 136.592 684.43 137.402C682.28 137.96 680.143 138.782 678.028 139.864C676.701 140.608 675.403 141.635 674.151 142.934C673.677 143.44 673.328 143.878 672.896 144.418C672.6 144.756 672.328 145.199 672.087 145.734C671.752 146.57 671.453 147.485 671.194 148.466C670.729 149.268 670.21 149.873 669.66 150.254L669.716 150.22ZM473.65 196.263C477.946 200.041 480.819 205.235 485.129 209.081C487.635 210.9 490.188 212.32 492.772 213.331C495.728 214.882 498.769 216.164 501.865 217.345C505.882 218.829 509.801 220.448 513.831 221.831C519.786 223.718 525.777 224.844 531.781 225.204C537.039 225.575 542.102 224.766 547.318 224.192C551.962 223.72 556.495 223.147 561.083 222.236C564.933 221.46 568.587 220.043 572.408 219.133C576.732 218.087 581.153 217.244 585.393 215.76C591.125 213.972 597.82 212.758 601.92 207.765C604.542 204.392 604.319 199.771 602.129 196.364C600.442 193.733 596.397 193.261 593.761 191.979C590.009 190.124 586.272 188.201 582.366 186.717C573.608 183.344 564.598 180.274 555.435 178.385C549.312 177.137 543.12 176.294 536.941 175.485C534.668 175.215 532.423 175.215 530.191 174.608C527.96 174 526.258 173.461 524.082 173.191C518.685 172.449 513.106 172.921 507.667 172.887C505.129 172.887 502.799 172.887 500.289 173.359C497.779 173.832 495.491 173.359 493.092 173.562C486.984 174.135 480.931 174.607 474.766 174.709C471.907 174.709 469.187 175.383 466.3 175.316C464.278 175.316 462.451 175.889 460.457 175.99C457.665 175.621 454.866 175.813 452.089 176.564C451.193 176.775 450.335 177.529 449.592 178.756C451.084 179.802 452.535 180.679 453.888 181.893C455.485 183.559 457.143 184.868 458.839 185.806C461.686 187.081 464.485 188.92 467.207 191.304C469.048 193.261 471.558 194.475 473.595 196.297L473.65 196.263ZM289.663 217.783C292.703 217.783 295.897 218.897 298.868 219.504C300.263 219.807 301.657 219.504 303.052 219.504C304.991 219.504 306.887 219.976 308.826 220.111C313.721 220.414 318.589 220.111 323.442 219.706C327.947 219.268 332.494 218.863 337.027 218.93C342.605 218.93 348.086 218.289 353.651 217.547C355.158 217.345 369.063 216.131 364.893 211.712C363.57 210.855 362.215 210.335 360.848 210.16C358.24 209.384 355.59 208.642 352.954 208.001L345.869 206.18C344.056 205.708 342.424 205.1 340.499 204.763C339.732 204.763 338.979 204.763 338.184 204.763C337.919 204.763 337.585 204.358 337.166 204.257C336.022 204.021 335.046 204.257 333.916 203.684C332.215 202.975 330.513 202.84 328.84 202.368C326.79 201.862 324.656 201.626 322.787 200.682C321.141 199.838 319.37 199.4 317.613 198.759C315.855 198.118 314.098 198.118 312.41 197.545C310.723 196.971 308.826 196.769 307.041 196.33C303.805 195.521 299.231 194.812 296.399 197.072C295.429 197.742 294.527 198.891 293.749 200.445C293.239 201.911 292.794 203.506 292.424 205.202C291.382 207.594 290.161 209.483 288.826 210.767C288.059 211.611 286.901 212.083 286.218 213.061C285.696 213.962 285.255 215.11 284.921 216.434C285.256 218.256 287.975 217.817 289.607 217.817L289.663 217.783ZM291.588 186.582C297.906 189.955 305.325 191.777 312.076 194.34C318.826 196.904 326.218 197.713 332.996 200.581C336.664 202.065 340.402 202.706 344.153 203.65C349.035 204.898 353.847 205.842 358.84 206.585C363.414 207.293 368.086 207.495 372.689 207.833C376.803 208.102 380.987 208.541 385.102 208.609C389.941 208.609 394.767 209.249 399.578 209.216C405.952 209.216 412.131 209.216 418.546 208.743C427.012 208.204 436.175 208.743 444.46 206.45C449.466 205.134 454.139 203.718 457.57 199.501C458.42 198.489 459.16 197.916 459.355 196.6C459.402 196.157 459.412 195.695 459.383 195.243C459.354 194.791 459.288 194.357 459.187 193.969C458.311 191.031 457.062 188.864 455.631 187.796C454.808 187.054 453.441 186.582 452.465 186.009C451.489 185.435 450.429 184.963 449.494 184.255C444.869 181.054 440.13 178.92 435.338 177.879C426.97 175.552 418.156 174.506 409.578 172.955C400.094 171.201 390.722 169.109 381.434 166.546C372.94 164.218 363.833 162.397 355.046 161.925C350.36 161.655 345.409 162.296 340.723 162.667C335.785 163.038 330.75 163.51 325.897 164.353C316.748 165.938 307.334 166.849 298.087 167.321C294.764 167.296 291.445 167.859 288.157 169.008C286.692 169.683 285.186 170.863 283.805 171.74C282.94 172.41 282.06 172.962 281.169 173.393C280.145 173.611 279.128 174.017 278.129 174.608C276.734 176.058 279.356 178.554 279.621 180.207C279.789 180.207 279.942 180.207 277.125 180.207C279.802 181.657 282.006 182.838 284.823 183.85C287.055 184.862 289.384 185.536 291.532 186.616L291.588 186.582ZM138.576 180.308C139.69 181.281 140.846 181.949 142.021 182.298C143.332 182.973 144.504 183.614 145.898 184.018C148.046 184.659 150.18 184.997 152.258 185.874C154.284 186.718 156.328 187.292 158.381 187.594C164.029 188.302 169.538 189.483 175.27 190.158C177.948 190.461 180.654 190.866 183.332 191.237C186.01 191.608 188.827 191.237 191.574 191.237C193.262 191.237 194.824 192.013 196.456 192.316C198.659 192.789 200.877 193.16 203.067 193.598C204.74 193.902 206.693 193.834 208.394 193.598C209.371 193.598 210.166 193.16 211.184 193.025C212.202 192.89 212.857 193.025 213.722 193.025C215.2 193.025 216.511 192.316 218.046 192.35C220.026 192.35 221.518 191.844 223.429 191.743C227 191.507 230.681 191.372 234.168 190.529C237.655 189.685 241.672 188.876 245.326 188.64C251.686 188.302 258.031 189.146 264.349 188.235C266.274 187.931 268.254 188.235 270.193 188.235C272.338 188.358 274.483 187.952 276.595 187.021C276.957 188.033 277.808 186.818 277.766 185.773C277.76 185.062 277.691 184.363 277.564 183.723C277.436 183.083 277.253 182.516 277.027 182.062C275.067 178.489 272.856 175.803 270.5 174.135C266.959 171.421 263.36 169.169 259.719 167.389C257.139 165.871 253.833 165.433 251.03 164.286C248.227 163.139 245.451 162.734 242.662 161.891C234.712 159.496 226.581 157.776 218.548 155.718C211.058 153.829 202.816 151.131 194.991 152.109C190.305 152.716 185.298 153.188 180.78 154.605C176.261 156.022 172.16 157.742 167.642 158.788C161.128 160.339 154.015 162.161 148.506 166.141C146.275 167.794 143.918 169.312 141.91 171.234C140.627 172.054 139.414 173.413 138.325 175.248C137.712 176.834 137.405 179.026 138.52 180.342L138.576 180.308ZM58.4792 147.893C61.3195 149.617 64.2104 150.813 67.1263 151.468C70.1807 152.278 73.2211 152.885 76.3731 153.155C79.5251 153.424 82.7747 153.154 85.9824 153.458C98.3673 154.639 110.111 159.226 122.537 160.204C128.758 160.643 134.95 161.115 141.198 160.845C145.592 160.845 149.915 159.8 154.211 158.855C158.506 157.911 162.579 155.954 166.763 154.571C169.873 153.492 172.774 152.041 175.605 150.389C178.046 150.389 183.388 148.769 186.358 144.553C187.07 143.541 187.851 142.664 187.614 141.18C187.376 139.696 186.219 139.021 185.326 137.807C182.607 134.935 179.725 133.07 176.777 132.275C175.103 131.702 173.848 130.622 172.202 129.948C170.556 129.273 168.45 128.868 166.623 128.396C162.76 127.485 158.981 126.035 155.075 125.259C148.793 124.099 142.487 123.817 136.191 124.416C132.467 124.719 128.939 125.023 125.173 124.753C121.087 124.483 117.07 123.808 113.025 123.201C106.822 122.244 100.598 122.436 94.4064 123.775C91.7705 124.382 89.2461 125.428 86.638 126.136C83.6534 126.945 80.5432 127.552 77.6143 128.531C74.6855 129.509 71.7288 131.196 68.6744 132.275C66.8689 132.791 65.0829 133.648 63.3327 134.838C60.8083 136.727 56.9451 140.134 56.2477 143.474C55.662 145.767 56.7359 146.88 58.4235 147.926L58.4792 147.893ZM103.026 72.8407C102.035 70.5133 99.4412 68.7591 97.2516 67.8821C87.8754 64.672 78.3847 63.8804 68.9394 65.5209C60.3899 66.5328 49.9158 66.1619 43.57 73.2117C42.4263 74.4935 41.5198 75.809 41.7709 77.6642C41.9243 78.8448 42.0637 78.8785 43.0679 79.4856C44.7834 80.5313 46.7778 81.1722 48.5351 82.2178C50.2924 83.2635 51.5476 84.2754 53.026 85.3548C55.1576 86.9752 57.3476 88.1046 59.567 88.7279C64.5879 90.2458 69.6646 91.2578 74.8249 92.1011C83.3147 93.7591 91.8393 94.1196 100.348 93.1805C100.529 92.5733 99.3297 90.0435 99.1065 89.234C98.8834 88.4244 98.0326 86.9741 97.9629 85.4899C97.7955 82.3192 99.7341 79.5867 101.854 77.4954C103.179 75.8426 103.751 74.7632 102.97 72.8743L103.026 72.8407ZM63.9743 99.3871C56.1501 98.7799 48.312 98.2065 40.4738 98.7462C33.0401 99.2184 25.6343 100.298 18.1588 100.939C12.9984 101.411 8.11693 100.568 2.99842 100.433C-2.12009 100.298 -6.90381 100.433 -11.841 100.433C-13.3752 100.433 -16.583 100.23 -16.9317 102.288C-17.2803 104.346 -15.4254 104.75 -13.2915 107.213C-9.00883 109.674 -4.63622 111.109 -0.237188 111.496C3.20238 111.797 6.63073 112.62 10.0277 113.959C11.8408 114.701 13.6818 115.409 15.5367 115.983C17.057 116.421 18.5213 117.13 20.0136 117.534C22.4265 118.209 24.7277 118.31 26.9871 119.524C29.2465 120.739 31.9383 121.312 34.4487 122.122C38.2702 123.302 41.8685 124.415 45.7736 125.191C46.8196 125.394 47.5588 125.596 48.563 125.664C49.358 125.664 50.3481 125.427 51.1292 125.664C52.3032 126.062 53.4863 126.288 54.6717 126.338C62.4959 126.338 69.7901 123.707 77.3912 122.189C81.4916 121.38 85.6756 120.739 89.8178 120.165C91.4217 119.963 93.1512 119.896 94.7411 119.592C95.2851 119.592 95.6616 119.12 96.2195 119.019C96.7774 118.917 97.6142 119.018 98.2976 118.816C100.882 118.317 103.475 118.16 106.066 118.344C108.967 118.344 111.505 118.985 114.434 118.951C117.74 118.951 121.561 119.491 124.825 118.951C126.365 118.744 127.898 118.282 129.413 117.568C130.615 117.125 131.788 116.297 132.9 115.106C133.5 113.52 127.767 111.429 126.498 111.092C123.095 110.181 120.166 108.427 116.903 107.213C113.081 105.796 109.079 105.054 105.118 104.177C91.6868 101.209 77.6283 100.466 63.9324 99.4207L63.9743 99.3871ZM168.269 72.8407C167.293 70.5133 164.699 68.7591 162.509 67.8821C153.128 64.6714 143.633 63.8798 134.183 65.5209C125.647 66.5328 115.159 66.1619 108.827 73.2117C107.684 74.4935 106.777 75.809 107.028 77.6642C107.182 78.8448 107.321 78.8785 108.311 79.4856C110.041 80.5313 112.035 81.1722 113.779 82.2178C115.522 83.2635 116.805 84.2754 118.284 85.3548C120.415 86.9785 122.605 88.108 124.825 88.7279C129.818 90.2458 134.894 91.2578 140.083 92.1011C148.572 93.7596 157.097 94.1201 165.605 93.1805C165.773 92.5733 164.587 90.0435 164.35 89.234C164.113 88.4244 163.29 86.9741 163.22 85.4899C163.039 82.3192 164.992 79.5867 167.112 77.4954C168.395 75.8426 169.022 74.7632 168.227 72.8743L168.269 72.8407ZM150.487 96.7222C145.507 96.9215 140.541 98.0492 135.633 100.095C133.486 101.006 130.055 102.693 129.525 105.189C128.995 107.685 130.85 108.764 132.077 110.248C132.705 111.024 133.262 111.8 133.792 112.508C134.027 112.744 134.255 113.015 134.476 113.318C134.755 113.858 134.657 114.195 134.894 114.735C135.382 115.915 135.55 116.387 135.508 117.804C135.508 118.007 135.382 118.816 135.508 119.052C135.633 119.288 136.219 119.862 136.289 119.997C140.013 120.806 143.723 122.088 147.558 122.122C149.05 122.122 150.25 122.662 151.742 122.729C152.816 122.729 153.918 122.729 154.978 122.729C156.038 122.729 157.14 123.302 158.297 123.37C159.455 123.437 160.654 123.37 161.854 123.37C164.643 123.808 167.363 123.775 170.096 124.314C171.324 124.55 172.579 124.314 173.834 124.314C175.089 124.314 175.954 124.685 177.098 124.888C180.03 125.495 182.979 125.495 185.912 124.888C192.481 123.201 199.036 121.211 205.619 119.524C207.558 119.052 209.44 118.344 211.435 118.108C213.429 117.872 215.479 118.108 217.39 117.399C222.537 115.949 227.655 114.701 232.885 113.52C237.348 112.542 241.672 111.901 245.995 110.147C247.739 109.506 252.578 107.381 248.952 105.594C246.163 104.211 242.55 103.705 239.51 102.963C234.642 101.782 229.747 101.175 224.852 100.433C212.941 98.6787 200.905 98.0041 188.938 97.0596C182.188 96.4525 175.466 96.5874 168.701 96.5874C162.551 96.7897 156.47 96.5536 150.445 96.756L150.487 96.7222ZM356.901 59.6179C355.911 54.8956 350.43 50.0384 346.859 47.34C344.376 45.6813 341.844 44.4748 339.286 43.7307C334.949 42.2128 330.918 39.9528 326.608 38.4686C322.299 36.9845 318.059 36.1749 313.805 35.0955C310.123 34.0836 306.539 32.5994 302.829 31.7224C294.055 29.7878 285.233 29.5059 276.441 30.8791C270.695 31.7224 265.005 32.7005 259.203 33.0715C253.875 33.4763 248.868 33.0715 243.582 32.5993C234.659 31.7589 225.723 32.1532 216.818 33.78C211.24 34.8594 205.94 37.1531 200.459 38.2663C197.823 38.8734 195.033 39.4467 192.509 40.4249C190.194 41.3694 188.395 42.921 186.038 43.798C181.855 44.9073 177.768 47.5579 173.918 51.6574C172.746 53.1416 171.017 54.2548 170.696 56.1775C170.375 58.1002 171.449 59.3482 172.453 60.7649C176.637 66.7353 184.238 68.9614 187.697 69.0626C191.714 71.3901 195.828 73.4478 200.249 74.932C206.065 76.9559 211.965 79.7218 217.976 81.0373C223.987 82.3529 230.193 83.6346 236.414 83.9044C245.27 84.2417 254.029 83.5335 262.913 82.96C280.5 81.8469 297.166 75.303 314.712 73.5827C319.258 73.1442 323.777 73.5827 328.324 73.2117C332.87 72.8407 337.096 71.9636 341.434 70.8167C345.567 69.8619 349.665 68.1593 353.693 65.7233C355.994 64.1042 357.515 62.5527 356.901 59.5506V59.6179ZM556.579 46.4629C556.527 45.0593 556.264 43.7504 555.839 42.7861C555.24 41.2008 555.184 39.413 554.696 37.8951C553.787 35.7879 552.689 34.2178 551.488 33.3077C550.427 32.5184 549.34 31.9541 548.238 31.6211C546.844 31.0477 545.449 30.137 544.194 29.3274C541.316 27.3011 538.385 25.746 535.421 24.6725C530.748 23.4183 526.051 22.7316 521.349 22.615C515.142 22.1765 509.048 23.2221 502.869 23.1883C498.894 23.1883 494.822 23.3908 490.861 23.0197C487.472 22.7161 484.097 22.2439 480.694 21.9403C469.536 20.9284 458.127 20.9283 446.97 21.4342C436.161 21.9402 425.352 23.0198 414.585 23.8968C409.871 24.2678 405.087 25.0098 400.457 25.9543C394.307 27.2698 387.905 28.4841 381.95 30.5079C375.213 32.7679 365.381 35.9724 362.424 43.3933C359.174 51.5899 364.976 58.2013 370.471 63.4633C375.276 67.5721 380.245 70.4548 385.297 72.0647C391.754 74.5608 398.518 76.5848 405.325 77.8666C424.949 81.8142 444.654 82.9405 464.334 81.2397C481.07 79.7218 498.016 78.6423 514.543 75.4041C524.11 73.5152 534.194 71.8624 542.966 67.2075C545.975 65.925 548.943 64.1445 551.851 61.8781C553.008 60.8324 555.951 58.5048 554.222 58.8084C554.913 57.8001 555.542 56.5626 556.091 55.1318C556.474 53.9815 556.815 52.751 557.109 51.4551C557.513 49.5998 556.704 48.1831 556.579 46.3954V46.4629ZM553.636 85.22C549.605 84.9501 545.686 84.208 541.614 84.7139C531.418 85.962 521.14 86.5354 510.93 87.0414C503.204 87.4462 495.993 89.2003 488.615 91.1905C486.858 91.6627 484.808 91.7301 483.204 92.5733C482.234 92.8472 481.291 93.5204 480.415 94.5636C481.12 95.0032 481.85 95.1625 482.576 95.0357C485.134 95.9403 487.718 96.3465 490.303 96.2501C492.925 96.2501 495.645 95.508 498.225 95.7778C505.882 96.4525 513.566 96.5198 521.237 97.3293C524.947 97.7341 528.699 97.7679 532.395 98.2402C535.728 98.7124 539.145 99.2184 542.492 99.3533C545.282 99.3533 548.071 99.9942 550.86 99.9605C554.208 99.9605 557.248 100.197 560.623 100.568C562.897 100.804 565.254 100.939 567.499 101.31C568.876 101.316 570.248 101.724 571.586 102.524C572.046 103.165 571.669 105.29 571.669 105.897C571.669 107.246 571.516 108.393 572.408 109.506C574.096 111.564 577.611 112.272 580.009 112.88C586.899 114.465 593.956 115.679 600.93 116.725C606.16 117.534 611.432 117.636 616.62 118.681C622.199 119.862 627.778 120.435 633.356 121.177C637.833 121.751 642.645 121.177 646.955 122.425C649.554 123.209 652.191 122.843 654.737 121.346C657.959 118.546 655.783 115.477 653.705 112.744C649.86 108.362 645.795 105.209 641.613 103.367L642.659 102.322C643.802 102.558 644.946 102.76 646.048 103.165C652.764 105.559 659.353 109.71 665.699 115.544C667.373 117.13 669.102 118.513 670.832 120.064C672.848 121.539 674.924 122.489 677.024 122.898C684.384 125.091 691.786 126.386 699.2 126.777C711.138 127.89 723.188 125.933 735.029 124.854C740.008 124.416 744.792 123.201 749.715 122.324C753.899 121.548 758.083 121.009 762.058 119.457C766.382 117.77 773.997 114.937 775.35 109.675C776.284 105.998 773.397 101.58 770.998 99.151C766.228 94.3611 758.962 91.2579 752.588 89.4701C745.448 87.48 737.805 85.7259 730.399 85.1862C722.365 84.5453 714.053 85.1862 706.061 86.0295C701.361 86.6029 696.689 87.48 692.031 88.4245C688.488 89.1328 685.057 90.4483 681.613 91.2915C678.488 92.0336 675.267 92.2698 672.115 92.4047C667.038 92.6071 661.808 93.9563 656.773 94.9008C654.583 95.3056 652.491 95.9464 650.385 96.7222C649.043 97.6246 647.671 98.2453 646.285 98.5774L642.589 102.322C641.348 102.119 640.121 101.917 638.907 101.613C636.773 101.074 634.723 100.129 632.757 99.252C624.096 95.5753 614.849 93.6526 605.714 91.8311C593.287 89.3013 580.693 87.9859 568.127 86.4342C563.301 85.9283 558.475 85.4223 553.636 85.1524V85.22ZM752.17 64.1042C751.194 59.3819 745.726 54.5245 742.142 51.826C739.664 50.1559 737.137 48.9383 734.583 48.1832C730.231 46.6991 726.215 44.4389 721.891 42.921C717.568 41.4031 713.328 40.6273 709.102 39.5479C705.406 38.5697 701.836 37.0855 698.112 36.1747C689.338 34.2681 680.516 33.9975 671.724 35.3652C665.978 36.2085 660.288 37.1868 654.486 37.5916C649.144 37.9626 644.165 37.5915 638.865 37.0856C629.947 36.2509 621.016 36.6339 612.115 38.2325C606.536 39.3456 601.237 41.4368 595.742 42.7186C593.12 43.3595 590.316 43.933 587.792 44.945C585.267 45.9569 583.691 47.4073 581.32 48.3181C577.142 49.4373 573.059 52.0992 569.215 56.2111C568.029 57.6952 566.314 58.7747 565.979 60.7311C565.644 62.6875 566.732 63.8681 567.736 65.3185C571.92 71.2889 579.521 73.5152 582.98 73.5827C586.997 75.9439 591.097 77.9678 595.532 79.5194C601.376 81.5095 607.262 84.2754 613.273 85.5572C619.284 86.839 625.49 88.1884 631.697 88.4245C640.581 88.7618 649.326 88.0871 658.196 87.5137C675.811 86.3668 692.449 79.8229 710.022 78.1363C714.541 77.6978 719.088 78.1364 723.621 77.7653C728.153 77.3943 732.407 76.4837 736.745 75.3705C740.873 74.4158 744.967 72.7132 748.99 70.2771C751.277 68.658 752.77 67.1063 752.17 64.1042ZM770.817 69.3325C763.634 69.771 754.346 70.8505 752.1 75.5391C751.054 77.6979 752.1 80.0254 755.81 81.0711C769.492 84.9165 785.378 84.4441 800.147 85.1862C804.331 85.4223 808.515 85.1862 812.699 85.1862C816.451 85.1862 820.091 85.8271 823.857 85.8609C830.398 85.8609 836.632 85.5236 843.118 85.22C855.935 84.6465 869.352 83.8369 881.653 81.577C880.787 81.1593 879.941 80.5263 879.128 79.688C878.641 78.66 878.119 77.7346 877.566 76.922C877.118 76.3952 876.651 75.9662 876.172 75.6402C875.419 75.1005 874.777 74.6283 873.954 74.1898C871.689 72.8341 869.393 71.798 867.078 71.0866C863.243 70.0747 859.882 69.1977 855.726 68.6243C849.408 67.8148 843.173 68.017 836.702 68.017C825.963 68.017 815.098 67.7135 804.387 68.3206C793.216 69.0627 782.058 68.5904 770.817 69.3325ZM1069.28 23.8968C1067.66 23.0535 1065.61 22.9522 1063.87 22.5137C1056.45 20.5235 1049.24 18.7358 1041.55 18.3648C1031.32 17.8588 1021.04 17.2854 1010.87 16.0373C1006.78 15.5314 1002.88 16.2735 998.849 16.5096C994.009 16.8132 989.183 17.3191 984.358 17.8925C971.806 19.4442 959.253 20.7598 946.785 23.2896C937.622 25.1111 928.403 27.0336 919.728 30.7103C917.706 31.5873 915.725 32.5318 913.591 33.0715C912.364 33.3751 911.137 33.5438 909.909 33.78L906.185 30.0359C904.771 29.7103 903.371 29.0894 902.001 28.1805C899.923 27.4047 897.817 26.7638 895.642 26.3591C890.677 25.3809 885.432 24.0654 880.3 23.863C877.134 23.863 873.94 23.4919 870.816 22.7498C867.315 21.8728 863.94 20.5911 860.398 19.8827C855.74 18.9383 851.067 18.0612 846.353 17.4878C838.376 16.5433 830.049 16.0036 822.016 16.6107C814.624 17.1841 806.981 18.9383 799.84 20.9284C793.453 22.7162 786.2 25.7857 781.43 30.6092C779.032 33.0379 776.131 37.3554 777.079 41.0996C778.474 46.3954 786.047 49.2289 790.343 50.9154C794.359 52.4671 798.515 53.0067 802.686 53.7487C807.609 54.6258 812.448 55.8738 817.386 56.3124C829.24 57.3917 841.291 59.3144 853.215 58.2351C860.593 57.5604 868.361 56.7508 875.405 54.3897C877.501 53.9732 879.572 53.012 881.583 51.5226C883.313 49.971 885.056 48.5879 886.716 47.0025C893.061 41.1618 899.65 37.0109 906.367 34.6232C907.483 34.2185 908.626 33.9824 909.77 33.78L910.816 34.8256C906.631 36.6364 902.564 39.7898 898.724 44.2028C896.646 46.9013 894.54 50.0047 897.692 52.7706C900.228 54.2665 902.856 54.6323 905.446 53.85C909.784 52.7706 914.581 53.2427 919.072 52.6356C924.651 51.8935 930.23 51.3201 935.809 50.1733C940.997 49.0601 946.255 48.959 951.513 48.1832C958.486 47.1038 965.557 45.9232 972.433 44.3041C974.832 43.7644 978.347 43.056 980.02 40.931C980.913 39.8516 980.773 38.7047 980.773 37.5578C980.773 36.411 980.383 34.6232 980.857 33.9823C982.194 33.1823 983.566 32.7746 984.944 32.7681C987.175 32.397 989.546 32.262 991.805 31.9921C995.125 31.6548 998.179 31.385 1001.57 31.4187C1004.36 31.4187 1007.15 30.9128 1009.94 30.8116C1013.3 30.643 1016.71 30.1369 1020.03 29.6984C1023.73 29.2262 1027.48 29.1926 1031.19 28.7878C1038.83 27.9783 1046.53 27.9107 1054.19 27.1686C1056.76 26.9662 1059.49 27.7421 1062.13 27.7084C1064.71 27.7891 1067.28 27.3829 1069.84 26.4939C1071.76 26.4939 1071.87 26.1568 1072 26.0218C1071.14 24.9392 1070.21 24.2204 1069.25 23.8968H1069.28ZM1310.31 23.8968C1309.67 22.0753 1308.54 21.5355 1306.78 20.8609C1302.6 19.1743 1298.6 17.4878 1294.16 16.5096C1289.5 15.4302 1284.97 14.9579 1280.21 14.5194C1274.41 14.0134 1268.67 13.0014 1262.85 12.5629C1245.9 11.3149 1228.87 11.315 1211.89 12.0233C1204.91 12.3269 1197.83 12.8666 1190.79 13.3051C1183.13 13.8111 1175.44 13.8112 1167.83 14.4183H1166.92C1157.16 15.2279 1147.33 16.3746 1137.55 17.4878C1129.48 18.3985 1120.81 18.4996 1113.37 22.0751L1110.58 23.5256C1110.14 23.1883 1109.68 22.7835 1109.18 22.4799C1103.13 18.2298 1094.86 19.107 1088.26 21.1983C1086.37 21.8392 1084.57 22.6149 1082.68 23.3569C1078.61 25.0435 1085.4 28.1468 1087.08 28.4504C1090.95 29.0742 1094.84 29.0742 1098.71 28.4504C1102.7 27.6293 1106.65 26.016 1110.54 23.6269C1111.79 24.74 1112.95 25.9206 1114.3 27C1115.57 27.8422 1116.85 28.4845 1118.15 28.9227C1124.26 31.0477 1130.48 32.2958 1136.07 35.6689C1137.86 36.622 1139.6 37.9656 1141.29 39.6829C1142.28 40.8298 1142.61 42.314 1143.51 43.5283C1145.12 45.7208 1147.69 45.6196 1149.94 46.2268C1151.76 46.6422 1153.59 46.7999 1155.42 46.6991C1158.48 46.6991 1161.4 47.7783 1164.45 47.9806C1169.39 48.0228 1174.32 48.789 1179.22 50.2745C1186.06 52.7707 1190.84 59.7867 1198.3 60.3939C1200.12 60.3939 1201.85 61.0009 1203.67 61.0684C1205.5 61.1358 1207.7 61.0684 1209.71 61.0684C1211.11 61.0684 1212.5 61.6419 1213.9 61.7768C1215.29 61.9117 1216.69 61.7768 1218.08 61.7768C1220.67 61.8439 1223.25 61.256 1225.79 60.0227C1227.32 59.1001 1228.82 57.974 1230.3 56.6496C1233.72 53.459 1237.21 50.7116 1240.76 48.4192C1245.27 46.2206 1249.86 45.0016 1254.47 44.7764C1257.76 44.5065 1261.02 43.6632 1264.36 43.4946C1267.69 43.3259 1270.85 42.8874 1274.2 42.8874C1278.2 42.8874 1282.11 43.5283 1286.11 43.4946C1290.77 43.4946 1295.29 43.4946 1299.91 42.8874C1298.14 41.6056 1297.91 40.4588 1298.85 39.5143C1299.78 38.5698 1300.51 37.9626 1301.25 37.0856C1302.7 35.5511 1304.2 34.2553 1305.74 33.2066C1306.98 32.3273 1308.16 30.9964 1309.24 29.2599C1310.17 26.9999 1310.95 25.7182 1310.28 23.8968H1310.31ZM1375.43 56.4134C1376.57 56.2111 1377.49 55.8063 1378.71 55.8401C1379.92 55.8738 1381.22 55.8401 1382.43 55.8401C1385.22 55.3004 1387.93 55.3342 1390.69 54.8957C1391.89 54.6596 1393.04 54.8957 1394.23 54.8957C1395.41 54.8957 1396.4 54.356 1397.56 54.221C1398.72 54.0861 1399.72 54.221 1400.8 54.221C1402.28 54.221 1403.48 53.5801 1404.98 53.5801C1408.83 53.5801 1412.56 52.2646 1416.28 51.4888C1416.28 51.4888 1416.89 51.0165 1417.05 50.5443C1417.2 50.072 1416.98 49.4648 1416.98 49.2625C1416.98 47.8457 1417.1 47.4074 1417.59 46.2268C1417.81 45.6871 1417.74 45.3498 1418.01 44.8101C1418.23 44.507 1418.47 44.2365 1418.71 44.0004C1419.24 43.292 1419.79 42.4826 1420.42 41.7405C1421.65 40.2563 1423.49 38.907 1422.97 36.647C1422.46 34.387 1419 32.4981 1416.85 31.5874C1411.94 29.5412 1406.98 28.4135 1402 28.2142C1395.99 28.0456 1389.89 28.2142 1383.87 28.2142C1377.1 28.2142 1370.39 28.2143 1363.64 28.6528C1351.68 29.7322 1339.61 30.3731 1327.73 32.0259C1322.78 32.7342 1317.97 33.3751 1313.07 34.5557C1310.03 35.2641 1306.46 35.8039 1303.63 37.1868C1300 38.9746 1304.84 41.0996 1306.57 41.7405C1310.91 43.3596 1315.23 43.9667 1319.7 45.1136C1324.93 46.2942 1330.05 47.5423 1335.18 48.9927C1337.1 49.5662 1339.19 49.4986 1341.13 49.701C1343.07 49.9034 1345.02 50.6456 1346.96 51.1178C1353.55 52.8044 1360.1 54.7944 1366.66 56.481C1369.57 57.0561 1372.49 57.0335 1375.4 56.4134H1375.43ZM1366.04 65.5209C1364.87 63.2205 1363.5 61.5429 1362.04 60.5963C1359.29 58.7431 1356.5 57.3123 1353.67 56.3124C1347.16 53.4037 1340.57 51.645 1333.95 51.0503C1325.32 50.207 1316.68 50.578 1308.09 49.5324C1299.5 48.4867 1290.85 48.4529 1282.22 48.4529C1277.59 48.4529 1273.07 47.9132 1268.47 47.812C1265.11 47.812 1261.93 48.1831 1258.62 48.4529C1256.41 48.6553 1254.3 48.8914 1252.1 49.0601C1250.23 49.1972 1248.37 49.6029 1246.52 50.2745C1243.24 51.2178 1240.05 53.5589 1237.1 57.1894C1235.03 59.9216 1234.31 63.126 1234.84 66.5666C1235.28 68.6279 1235.8 70.5918 1236.38 72.4357C1236.77 74.4118 1237.46 75.9547 1238.3 76.7534C1240.6 79.1821 1244.63 79.2157 1247.73 79.2157C1253.94 79.2157 1260.19 77.7991 1266.36 77.2257C1272.78 76.5848 1279.07 75.4717 1285.54 75.5054H1293.91C1296.06 75.5054 1298.36 75.2018 1300.46 75.5054C1306.77 76.7872 1313.43 77.2256 1319.54 79.182C1321.83 79.924 1324.27 80.4302 1326.59 81.0373C1326.77 81.0373 1327.01 81.4757 1327.28 81.5432C1327.8 81.5432 1328.54 81.5432 1329.1 81.5432C1329.66 81.5432 1330.63 81.9818 1330.03 82.1168C1335.72 81.9144 1341.19 80.5988 1346.77 79.0809C1352.68 77.7496 1358.55 75.2679 1364.3 71.66C1366.78 70.1084 1367.33 68.3543 1366.01 65.5209H1366.04ZM1414.16 106.707C1413.07 104.87 1411.86 103.522 1410.57 102.726C1408.58 100.77 1406.22 99.3533 1403.99 97.633C1398.41 93.5853 1391.37 91.7975 1384.86 90.2459C1380.32 89.2002 1376.14 87.4462 1371.7 86.0633C1367.27 84.6803 1362.18 84.1743 1357.51 83.5672C1349.68 82.589 1341.44 85.2538 1333.95 87.1764C1325.9 89.234 1317.79 90.9204 1309.82 93.3491C1307.03 94.1586 1304.24 94.6647 1301.52 95.7441C1298.8 96.8235 1295.4 97.3294 1292.84 98.8135C1289.19 100.589 1285.59 102.841 1282.05 105.56C1279.7 107.214 1277.48 109.9 1275.53 113.487C1275.3 113.948 1275.12 114.515 1274.99 115.153C1274.86 115.79 1274.78 116.486 1274.76 117.197C1274.76 118.209 1275.58 119.491 1275.96 118.411C1278.07 119.374 1280.22 119.792 1282.36 119.659C1284.3 119.659 1286.28 119.659 1288.19 119.659C1294.51 120.638 1300.87 119.659 1307.23 120.132C1310.88 120.334 1314.83 121.11 1318.39 121.987C1321.94 122.864 1325.55 122.965 1329.13 123.168C1331.05 123.168 1332.54 123.842 1334.51 123.808C1336.04 123.808 1337.3 124.281 1338.85 124.483C1339.7 124.483 1340.53 124.483 1341.38 124.483C1342.24 124.483 1343.13 125.023 1344.1 125.09C1345.88 125.327 1347.66 125.327 1349.43 125.09C1351.62 124.685 1353.84 124.314 1356.03 123.876C1357.67 123.538 1359.22 122.83 1360.92 122.763C1363.71 122.763 1366.42 123.033 1369.15 122.763C1371.89 122.493 1374.52 121.987 1377.23 121.683C1382.88 121.009 1388.47 119.794 1394.1 119.086C1396.16 118.811 1398.2 118.248 1400.23 117.399C1402.32 116.522 1404.41 116.185 1406.6 115.544C1407.99 115.139 1409.17 114.465 1410.48 113.824C1411.65 113.459 1412.8 112.792 1413.91 111.834C1414.97 110.417 1414.72 108.225 1414.13 106.707H1414.16ZM1163.12 90.853C1163.12 91.3253 1163.12 91.73 1163.05 92.0673C1162.5 92.1685 1162.33 91.6626 1163.02 90.853H1163.12ZM389.537 160.677C389.537 160.339 389.537 159.935 389.467 159.462C390.067 160.306 389.885 160.811 389.439 160.677H389.537ZM1162.95 92.0673C1162.5 92.0673 1162.33 91.6626 1163.02 90.853C1162.99 91.3253 1162.98 91.73 1162.95 92.0673ZM389.439 160.677C389.439 160.339 389.439 159.935 389.369 159.462C390.067 160.306 389.885 160.811 389.439 160.677ZM1162.95 92.0673C1162.5 92.0673 1162.33 91.6626 1163.02 90.853C1162.99 91.3253 1162.98 91.73 1162.95 92.0673ZM389.439 160.677C389.439 160.339 389.439 159.935 389.369 159.462C390.067 160.306 389.885 160.811 389.439 160.677ZM1162.95 92.0673C1162.5 92.0673 1162.33 91.6626 1163.02 90.853C1162.99 91.3253 1162.98 91.73 1162.95 92.0673ZM389.439 160.677C389.439 160.339 389.439 159.935 389.369 159.462C390.067 160.306 389.885 160.811 389.439 160.677ZM1162.95 92.0673C1162.5 92.0673 1162.33 91.6626 1163.02 90.853C1162.99 91.3253 1162.98 91.73 1162.95 92.0673ZM389.439 160.677C389.439 160.339 389.439 159.935 389.369 159.462C390.067 160.306 389.885 160.811 389.439 160.677ZM1162.95 92.0673C1162.5 92.0673 1162.33 91.6626 1163.02 90.853C1162.99 91.3253 1162.98 91.73 1162.95 92.0673ZM389.439 160.677C389.439 160.339 389.439 159.935 389.369 159.462C390.067 160.306 389.885 160.811 389.439 160.677ZM1162.95 92.0673C1162.5 92.0673 1162.33 91.6626 1163.02 90.853C1162.99 91.3253 1162.98 91.73 1162.95 92.0673ZM389.439 160.677C389.439 160.339 389.439 159.935 389.369 159.462C390.067 160.306 389.885 160.811 389.439 160.677ZM1162.95 92.0673C1162.5 92.0673 1162.33 91.6626 1163.02 90.853C1162.99 91.3253 1162.98 91.73 1162.95 92.0673ZM389.439 160.677C389.439 160.339 389.439 159.935 389.369 159.462C390.067 160.306 389.885 160.811 389.439 160.677ZM1162.95 92.0673C1162.5 92.0673 1162.33 91.6626 1163.02 90.853C1162.99 91.3253 1162.98 91.73 1162.95 92.0673ZM389.439 160.677C389.439 160.339 389.439 159.935 389.369 159.462C390.067 160.306 389.885 160.811 389.439 160.677ZM389.439 160.677C389.439 160.339 389.439 159.935 389.369 159.462C390.067 160.306 389.885 160.811 389.439 160.677ZM389.439 160.677C389.439 160.339 389.439 159.935 389.369 159.462C390.067 160.306 389.885 160.811 389.439 160.677ZM389.439 160.677C389.439 160.339 389.439 159.935 389.369 159.462C390.067 160.306 389.885 160.811 389.439 160.677ZM389.439 160.677C389.439 160.339 389.439 159.935 389.369 159.462C390.067 160.306 389.885 160.811 389.439 160.677ZM389.439 160.677C389.439 160.339 389.439 159.935 389.369 159.462C390.067 160.306 389.885 160.811 389.439 160.677ZM389.439 160.677C389.439 160.339 389.439 159.935 389.369 159.462C390.067 160.306 389.885 160.811 389.439 160.677ZM389.439 160.677C389.439 160.339 389.439 159.935 389.369 159.462C390.067 160.306 389.885 160.811 389.439 160.677ZM389.439 160.677C389.439 160.339 389.439 159.935 389.369 159.462C390.067 160.306 389.885 160.811 389.439 160.677ZM389.439 160.677C389.439 160.339 389.439 159.935 389.369 159.462C390.067 160.306 389.885 160.811 389.439 160.677ZM389.439 160.677C389.439 160.339 389.439 159.935 389.369 159.462C390.067 160.306 389.885 160.811 389.439 160.677ZM389.439 160.677C389.439 160.339 389.439 159.935 389.369 159.462C390.067 160.306 389.885 160.811 389.439 160.677ZM389.439 160.677C389.439 160.339 389.439 159.935 389.369 159.462C390.067 160.306 389.885 160.811 389.439 160.677ZM389.439 160.677C389.439 160.339 389.439 159.935 389.369 159.462C390.067 160.306 389.885 160.811 389.439 160.677ZM389.439 160.677C389.439 160.339 389.439 159.935 389.369 159.462C390.067 160.306 389.885 160.811 389.439 160.677ZM389.439 160.677C389.439 160.339 389.439 159.935 389.369 159.462C390.067 160.306 389.885 160.811 389.439 160.677ZM389.439 160.677C389.439 160.339 389.439 159.935 389.369 159.462C390.067 160.306 389.885 160.811 389.439 160.677ZM389.439 160.677C389.439 160.339 389.439 159.935 389.369 159.462C390.067 160.306 389.885 160.811 389.439 160.677ZM389.439 160.677C389.439 160.339 389.439 159.935 389.369 159.462C390.067 160.306 389.885 160.811 389.439 160.677ZM389.439 160.677C389.439 160.339 389.439 159.935 389.369 159.462C390.067 160.306 389.885 160.811 389.439 160.677ZM389.439 160.677C389.439 160.339 389.439 159.935 389.369 159.462C390.067 160.306 389.885 160.811 389.439 160.677ZM389.439 160.677C389.439 160.339 389.439 159.935 389.369 159.462C390.067 160.306 389.885 160.811 389.439 160.677ZM389.439 160.677C389.439 160.339 389.439 159.935 389.369 159.462C390.067 160.306 389.885 160.811 389.439 160.677ZM389.439 160.677C389.439 160.339 389.439 159.935 389.369 159.462C390.067 160.306 389.885 160.811 389.439 160.677ZM389.439 160.677C389.439 160.339 389.439 159.935 389.369 159.462C390.067 160.306 389.885 160.811 389.439 160.677ZM389.439 160.677C389.439 160.339 389.439 159.935 389.369 159.462C390.067 160.306 389.885 160.811 389.439 160.677ZM389.439 160.677C389.439 160.339 389.439 159.935 389.369 159.462C390.067 160.306 389.885 160.811 389.439 160.677ZM389.439 160.677C389.439 160.339 389.439 159.935 389.369 159.462C390.067 160.306 389.885 160.811 389.439 160.677ZM389.439 160.677C389.439 160.339 389.439 159.935 389.369 159.462C390.067 160.306 389.885 160.811 389.439 160.677ZM389.439 160.677C389.439 160.339 389.439 159.935 389.369 159.462C390.067 160.306 389.885 160.811 389.439 160.677ZM389.439 160.677C389.439 160.339 389.439 159.935 389.369 159.462C390.067 160.306 389.885 160.811 389.439 160.677ZM389.439 160.677C389.439 160.339 389.439 159.935 389.369 159.462C390.067 160.306 389.885 160.811 389.439 160.677ZM389.439 160.677C389.439 160.339 389.439 159.935 389.369 159.462C390.067 160.306 389.885 160.811 389.439 160.677ZM389.439 160.677C389.439 160.339 389.439 159.935 389.369 159.462C390.067 160.306 389.885 160.811 389.439 160.677ZM389.439 160.677C389.439 160.339 389.439 159.935 389.369 159.462C390.067 160.306 389.885 160.811 389.439 160.677ZM389.439 160.677C389.439 160.339 389.439 159.935 389.369 159.462C390.067 160.306 389.885 160.811 389.439 160.677ZM389.439 160.677C389.439 160.339 389.439 159.935 389.369 159.462C390.067 160.306 389.885 160.811 389.439 160.677ZM389.439 160.677C389.439 160.339 389.439 159.935 389.369 159.462C390.067 160.306 389.885 160.811 389.439 160.677ZM389.439 160.677C389.439 160.339 389.439 159.935 389.369 159.462C390.067 160.306 389.885 160.811 389.439 160.677ZM389.439 160.677C389.439 160.339 389.439 159.935 389.369 159.462C390.067 160.306 389.885 160.811 389.439 160.677ZM389.439 160.677C389.439 160.339 389.439 159.935 389.369 159.462C390.067 160.306 389.885 160.811 389.439 160.677ZM389.439 160.677C389.439 160.339 389.439 159.935 389.369 159.462C390.067 160.306 389.885 160.811 389.439 160.677ZM389.439 160.677C389.439 160.339 389.439 159.935 389.369 159.462C390.067 160.306 389.885 160.811 389.439 160.677ZM389.439 160.677C389.439 160.339 389.439 159.935 389.369 159.462C390.067 160.306 389.885 160.811 389.439 160.677ZM389.439 160.677C389.439 160.339 389.439 159.935 389.369 159.462C390.067 160.306 389.885 160.811 389.439 160.677ZM389.439 160.677C389.439 160.339 389.439 159.935 389.369 159.462C390.067 160.306 389.885 160.811 389.439 160.677ZM389.439 160.677C389.439 160.339 389.439 159.935 389.369 159.462C390.067 160.306 389.885 160.811 389.439 160.677ZM389.439 160.677C389.439 160.339 389.439 159.935 389.369 159.462C390.067 160.306 389.885 160.811 389.439 160.677ZM389.439 160.677C389.439 160.339 389.439 159.935 389.369 159.462C390.067 160.306 389.885 160.811 389.439 160.677ZM389.439 160.677C389.439 160.339 389.439 159.935 389.369 159.462C390.067 160.306 389.885 160.811 389.439 160.677ZM389.439 160.677C389.439 160.339 389.439 159.935 389.369 159.462C390.067 160.306 389.885 160.811 389.439 160.677ZM389.439 160.677C389.439 160.339 389.439 159.935 389.369 159.462C390.067 160.306 389.885 160.811 389.439 160.677ZM389.439 160.677C389.439 160.339 389.439 159.935 389.369 159.462C390.067 160.306 389.885 160.811 389.439 160.677ZM389.439 160.677C389.439 160.339 389.439 159.935 389.369 159.462C390.067 160.306 389.885 160.811 389.439 160.677ZM389.439 160.677C389.439 160.339 389.439 159.935 389.369 159.462C390.067 160.306 389.885 160.811 389.439 160.677Z"
      fill="url(#paint0_linear_3853_17120)"
      fillOpacity="0.7"
      style="mix-blend-mode:screen"
    />
  </g>
  <defs>
    <linearGradient
      id="paint0_linear_3853_17120"
      x1="720.05"
      y1="0.0824435"
      x2="720.05"
      y2="276.037"
      gradientUnits="userSpaceOnUse"
    >
      <stop />
      <stop offset="1" stopColor="#11868D" />
    </linearGradient>
  </defs>
</svg>