<svg width="96" height="96" viewBox="0 0 96 96" fill="none" xmlns="http://www.w3.org/2000/svg">
<rect width="96" height="96" rx="48" fill="url(#paint0_linear_5192_23144)"/>
<rect x="6" y="6" width="84" height="84" rx="42" stroke="url(#paint1_linear_5192_23144)" stroke-opacity="0.4" stroke-width="12"/>
<path d="M46.372 70.4346C46.8886 70.7359 47.1469 70.8866 47.5114 70.9648C47.7943 71.0255 48.207 71.0255 48.4899 70.9648C48.8544 70.8866 49.1127 70.7359 49.6293 70.4346C54.1747 67.7828 66.6673 59.4529 66.6673 47.9999V36.8409C66.6673 34.9754 66.6673 34.0426 66.3622 33.2408C66.0927 32.5325 65.6547 31.9005 65.0861 31.3994C64.4425 30.8322 63.5691 30.5047 61.8224 29.8497L49.3115 25.1581C48.8264 24.9762 48.5839 24.8852 48.3344 24.8492C48.113 24.8172 47.8883 24.8172 47.6669 24.8492C47.4174 24.8852 47.1749 24.9762 46.6898 25.1581L34.1789 29.8497C32.4322 30.5047 31.5588 30.8322 30.9152 31.3994C30.3466 31.9005 29.9086 32.5325 29.6391 33.2408C29.334 34.0426 29.334 34.9754 29.334 36.8409V47.9999C29.334 59.4529 41.8266 67.7828 46.372 70.4346Z" fill="url(#paint2_linear_5192_23144)"/>
<path d="M41.0007 46.8332L45.6673 51.4999L56.1673 40.9999M66.6673 47.9999C66.6673 59.4529 54.1747 67.7828 49.6293 70.4346C49.1127 70.7359 48.8544 70.8866 48.4899 70.9648C48.207 71.0255 47.7943 71.0255 47.5114 70.9648C47.1469 70.8866 46.8886 70.7359 46.372 70.4346C41.8266 67.7828 29.334 59.4529 29.334 47.9999V36.8409C29.334 34.9754 29.334 34.0426 29.6391 33.2408C29.9086 32.5325 30.3466 31.9005 30.9152 31.3994C31.5588 30.8322 32.4322 30.5047 34.1789 29.8497L46.6898 25.1581C47.1749 24.9762 47.4174 24.8852 47.6669 24.8492C47.8883 24.8172 48.113 24.8172 48.3344 24.8492C48.5839 24.8852 48.8264 24.9762 49.3115 25.1581L61.8224 29.8497C63.5691 30.5047 64.4425 30.8322 65.0861 31.3994C65.6547 31.9005 66.0927 32.5325 66.3622 33.2408C66.6673 34.0426 66.6673 34.9754 66.6673 36.8409V47.9999Z" stroke="url(#paint3_linear_5192_23144)" stroke-width="2" stroke-linecap="round" stroke-linejoin="round"/>
<defs>
<linearGradient id="paint0_linear_5192_23144" x1="48" y1="0" x2="48" y2="96" gradientUnits="userSpaceOnUse">
<stop stop-color="#E2FAFF"/>
<stop offset="1" stop-color="#EBFFED"/>
</linearGradient>
<linearGradient id="paint1_linear_5192_23144" x1="86.4" y1="8.4" x2="-9" y2="114" gradientUnits="userSpaceOnUse">
<stop stop-color="#00D1FF"/>
<stop offset="1" stop-color="#B7FE21"/>
</linearGradient>
<linearGradient id="paint2_linear_5192_23144" x1="29.334" y1="30.9461" x2="69.3801" y2="64.1122" gradientUnits="userSpaceOnUse">
<stop offset="0.0677083" stop-color="#874FFF"/>
<stop offset="0.463542" stop-color="#36AFE2"/>
<stop offset="0.859375" stop-color="#57FF68"/>
</linearGradient>
<linearGradient id="paint3_linear_5192_23144" x1="44.4995" y1="70.749" x2="74.7047" y2="31.6911" gradientUnits="userSpaceOnUse">
<stop stop-color="#00D1FF"/>
<stop offset="1" stop-color="#B7FE21"/>
</linearGradient>
</defs>
</svg>
