<svg width="96" height="96" viewBox="0 0 96 96" fill="none" xmlns="http://www.w3.org/2000/svg">
<rect x="6" y="6" width="84" height="84" rx="42" fill="url(#paint0_linear_5197_61876)"/>
<rect x="6" y="6" width="84" height="84" rx="42" stroke="url(#paint1_linear_5197_61876)" stroke-width="12"/>
<path fill-rule="evenodd" clip-rule="evenodd" d="M42.8052 17.7946C42.3433 16.689 40.6687 17.1632 40.8718 18.3421L41.2674 20.6391C41.2787 20.7049 41.2951 20.7684 41.3162 20.8293C40.9158 20.961 40.5164 21.1018 40.1184 21.252C38.4486 21.882 36.8724 22.6488 35.3977 23.5346C35.3661 23.4843 35.3303 23.4357 35.2901 23.389L33.7675 21.619C32.9837 20.708 31.5404 21.672 32.1011 22.732L33.192 24.7943C33.2187 24.8447 33.2484 24.8925 33.2807 24.9374C31.5047 26.2311 29.9055 27.7094 28.5004 29.3338C28.4614 29.3029 28.4201 29.2741 28.3763 29.2474L26.3726 28.0258C25.3436 27.3985 24.2727 28.7579 25.1363 29.5953L26.8206 31.2286C26.8554 31.2624 26.8916 31.2936 26.9291 31.3223C25.6588 33.0851 24.5963 34.9832 23.7598 36.976C23.7182 36.9611 23.6752 36.9482 23.631 36.9376L21.3442 36.3878C20.1707 36.1057 19.5773 37.7274 20.659 38.2602L22.7697 39.2996C22.8078 39.3183 22.8463 39.3349 22.8851 39.3493C22.2298 41.4034 21.8062 43.5359 21.6322 45.7067C21.594 45.706 21.5553 45.7071 21.5162 45.7101L19.1747 45.8865C17.9715 45.9771 17.9135 47.7025 19.1077 47.8785L21.4327 48.221C21.4698 48.2265 21.5068 48.2302 21.5434 48.2323C21.5544 49.3602 21.6331 50.494 21.7821 51.6285L15.337 48.939C14.8284 48.7267 14.2548 49.0256 14.1809 49.5692C13.6753 53.2881 13.9848 60.1311 18.3506 65.0321C18.7032 65.4279 19.3235 65.3851 19.6433 64.9657L23.9311 59.3433C24.4855 60.6154 25.1232 61.8289 25.8353 62.98C25.8054 63.001 25.7761 63.0234 25.7476 63.0475L23.9608 64.5544C23.0431 65.3284 24.02 66.7607 25.0887 66.208L27.1665 65.1335C27.2006 65.1159 27.2334 65.0969 27.2649 65.0767C28.5843 66.8382 30.0901 68.4241 31.7429 69.8169C31.7199 69.8472 31.6981 69.8789 31.6776 69.912L30.448 71.8964C29.8174 72.914 31.1925 73.9783 32.0356 73.1251L33.6769 71.4641C33.7067 71.434 33.7345 71.4028 33.7603 71.3707C35.5489 72.6272 37.4729 73.6779 39.4915 74.5046C39.476 74.5469 39.4627 74.5906 39.4518 74.6355L38.9028 76.8992C38.621 78.0608 40.2598 78.653 40.7948 77.5828L41.8359 75.5001C41.8576 75.4566 41.8765 75.4125 41.8924 75.368C43.9678 76.0139 46.1209 76.4311 48.3113 76.6015C48.3088 76.6525 48.3095 76.7042 48.3137 76.7566L48.4977 79.0731C48.5923 80.2651 50.3343 80.3271 50.5088 79.1447L50.8478 76.8477C50.8557 76.7939 50.8599 76.7404 50.8606 76.6876C53.0117 76.6656 55.1832 76.404 57.3382 75.8864C57.3525 75.9417 57.3709 75.9969 57.3937 76.0515L58.2934 78.2054C58.7552 79.311 60.4298 78.8368 60.2267 77.6579L59.8312 75.3616C59.8207 75.3003 59.8057 75.2411 59.7867 75.184C60.1402 75.0658 60.4929 74.9404 60.8445 74.8077C62.5618 74.1598 64.1801 73.3672 65.6908 72.4492C65.7249 72.5053 65.7641 72.5595 65.8086 72.6113L67.331 74.381C68.1148 75.292 69.5582 74.328 68.9974 73.268L67.9067 71.2061C67.8748 71.1458 67.8386 71.0893 67.7988 71.0369C69.5646 69.7369 71.1539 68.2535 72.5492 66.6252C72.602 66.6718 72.6598 66.7146 72.7224 66.7527L74.7259 67.9742C75.7549 68.6015 76.8258 67.2421 75.9622 66.4047L74.2781 64.7715C74.2246 64.7197 74.1677 64.6738 74.1082 64.6338C75.3663 62.8713 76.4176 60.9752 77.244 58.9855C77.3144 59.0176 77.3891 59.0435 77.4676 59.0624L79.7543 59.6122C80.9278 59.8943 81.5213 58.2725 80.4395 57.7398L78.3289 56.7005C78.2564 56.6648 78.1823 56.637 78.1075 56.6167C78.7527 54.5697 79.1682 52.4457 79.3361 50.2841C79.416 50.294 79.4983 50.2963 79.5823 50.2899L81.9239 50.1135C83.127 50.0229 83.185 48.2975 81.9908 48.1215L79.6658 47.779C79.5821 47.7666 79.4996 47.7631 79.4188 47.7677C79.395 45.7562 79.1555 43.7259 78.6863 41.7076C79.2168 41.9963 79.7986 42.0726 80.3928 41.8203C81.5144 41.3338 81.9961 40.1058 81.4854 38.9022C80.8497 37.4076 79.7308 36.1636 78.3046 35.3662C78.3153 35.3271 78.3257 35.2895 78.3359 35.2529L78.3537 35.1888L78.3539 35.1882L78.3539 35.1879L78.3541 35.1873L78.3542 35.187L78.3544 35.1862L78.3545 35.1859C78.3956 35.0382 78.4319 34.9078 78.4628 34.7772C78.8419 33.3234 78.7463 31.7869 78.1897 30.388C78.0119 29.9565 77.6947 29.5953 77.2879 29.361C76.8811 29.1267 76.4077 29.0325 75.9417 29.0931C74.967 29.227 74.1074 29.9504 74.1127 30.8928L74.1129 30.9255V30.9257V30.9263C74.1144 31.1352 74.1159 31.3481 74.1208 31.5625C72.7163 29.5859 71.0818 27.8188 69.2694 26.2845C69.3253 26.2257 69.3761 26.1603 69.4207 26.0884L70.6506 24.1036C71.2811 23.086 69.906 22.0217 69.0629 22.8749L67.4213 24.5362C67.3608 24.5974 67.3084 24.6631 67.2639 24.7323C65.486 23.4763 63.5732 22.4242 61.566 21.5941C61.5998 21.5221 61.627 21.4456 61.6466 21.365L62.1957 19.1008C62.4775 17.9392 60.8387 17.347 60.3037 18.4172L59.2624 20.5003C59.2256 20.5739 59.1973 20.6491 59.1768 20.725C57.1098 20.0731 54.9648 19.6483 52.7819 19.4686C52.7897 19.3954 52.7909 19.3203 52.7848 19.2439L52.6008 16.9269C52.5062 15.7349 50.7642 15.6729 50.5897 16.8553L50.2507 19.1528C50.2398 19.2265 50.2359 19.2994 50.2385 19.371C48.0902 19.3829 45.9206 19.6336 43.7668 20.1396C43.7517 20.0756 43.7312 20.0118 43.7049 19.9487L42.8052 17.7946ZM59.5795 71.5389C46.4753 76.4829 31.7852 69.9579 26.7622 56.9786C26.1359 55.3601 25.6893 53.7175 25.4128 52.0722C29.346 49.7801 33.7088 47.7957 38.4114 46.6049C40.7529 46.012 42.7616 45.7652 44.6307 45.6848L44.2446 52.8807C47.1465 52.4629 53.1327 50.458 56.6923 45.6828C59.8394 45.3945 63.5714 44.6385 68.4828 42.8612C70.7725 42.0327 72.7207 40.7722 74.3192 39.3935C79.1184 52.2927 72.5787 66.6346 59.5795 71.5389ZM31.1238 55.6812C31.337 56.8633 32.4775 57.6516 33.6712 57.442C34.8649 57.2325 35.6598 56.1043 35.4466 54.9223C35.2334 53.7402 34.0929 52.9518 32.8991 53.1614C31.7054 53.371 30.9106 54.4991 31.1238 55.6812ZM42.1326 56.5549C42.2718 57.3264 43.0163 57.8409 43.7955 57.7041C44.5748 57.5673 45.0937 56.831 44.9545 56.0595C44.8154 55.2879 44.0709 54.7734 43.2916 54.9102C42.5124 55.047 41.9935 55.7834 42.1326 56.5549ZM54.9899 56.0556C55.1291 56.8272 55.8736 57.3417 56.6528 57.2049C57.4321 57.0681 57.951 56.3317 57.8118 55.5602C57.6727 54.7887 56.9282 54.2742 56.1489 54.411C55.3697 54.5478 54.8508 55.2841 54.9899 56.0556ZM60.9977 65.1482C60.2184 65.285 59.4739 64.7705 59.3348 63.999C59.1956 63.2275 59.7145 62.4912 60.4938 62.3543C61.273 62.2175 62.0175 62.7321 62.1567 63.5036C62.2958 64.2751 61.7769 65.0114 60.9977 65.1482ZM42.6423 66.3132C42.7814 67.0847 43.526 67.5992 44.3052 67.4624C45.0844 67.3256 45.6034 66.5892 45.4642 65.8177C45.325 65.0462 44.5805 64.5317 43.8013 64.6685C43.022 64.8053 42.5031 65.5416 42.6423 66.3132ZM38.2309 62.6147C37.4516 62.7515 36.7071 62.2369 36.568 61.4654C36.4288 60.6939 36.9477 59.9576 37.727 59.8208C38.5062 59.684 39.2507 60.1985 39.3899 60.97C39.529 61.7415 39.0101 62.4779 38.2309 62.6147ZM48.9001 60.7723C49.0392 61.5438 49.7837 62.0583 50.563 61.9215C51.3423 61.7847 51.8612 61.0484 51.722 60.2769C51.5828 59.5054 50.8383 58.9908 50.0591 59.1276C49.2798 59.2644 48.7609 60.0008 48.9001 60.7723ZM65.3509 57.8857C64.1572 58.0953 63.0167 57.3069 62.8035 56.1249C62.5903 54.9428 63.3852 53.8146 64.5789 53.6051C65.7726 53.3955 66.9131 54.1839 67.1263 55.3659C67.3395 56.548 66.5447 57.6761 65.3509 57.8857ZM53.0557 68.8993C51.862 69.1089 50.7215 68.3206 50.5083 67.1385C50.2951 65.9564 51.0899 64.8283 52.2837 64.6187C53.4774 64.4091 54.6179 65.1975 54.8311 66.3796C55.0443 67.5616 54.2494 68.6898 53.0557 68.8993ZM64.7466 38.0218C66.5925 37.6062 67.7326 35.7206 67.2929 33.81C66.8533 31.8995 65.0005 30.6876 63.1546 31.1032C61.3086 31.5188 60.1686 33.4045 60.6082 35.315C61.0478 37.2255 62.9006 38.4374 64.7466 38.0218ZM65.9942 34.3C66.2126 35.2489 65.7156 36.1699 64.8843 36.3571C64.0529 36.5442 63.2019 35.9267 62.9836 34.9778C62.7652 34.0288 63.2622 33.1079 64.0936 32.9207C64.9249 32.7335 65.7759 33.3511 65.9942 34.3Z" fill="#874FFF"/>
<defs>
<linearGradient id="paint0_linear_5197_61876" x1="48" y1="0" x2="48" y2="96" gradientUnits="userSpaceOnUse">
<stop stop-color="#E2FAFF"/>
<stop offset="1" stop-color="#EBFFED"/>
</linearGradient>
<linearGradient id="paint1_linear_5197_61876" x1="48" y1="0" x2="48" y2="96" gradientUnits="userSpaceOnUse">
<stop stop-color="#E6E3FF"/>
<stop offset="1" stop-color="#EDFFEF"/>
</linearGradient>
</defs>
</svg>
