<svg width="96" height="96" viewBox="0 0 96 96" fill="none" xmlns="http://www.w3.org/2000/svg">
<rect width="96" height="96" rx="48" fill="url(#paint0_linear_5192_23131)"/>
<rect x="6" y="6" width="84" height="84" rx="42" stroke="url(#paint1_linear_5192_23131)" stroke-opacity="0.4" stroke-width="12"/>
<path d="M31 48.4097L48.4249 20L48.4249 40.695L31 48.4097Z" fill="url(#paint2_linear_5192_23131)"/>
<path d="M65.8496 48.4588L48.4247 20L48.4247 40.7032L65.8496 48.4588Z" fill="url(#paint3_linear_5192_23131)"/>
<g filter="url(#filter0_b_5192_23131)">
<path d="M65.8914 48.4508L48.4258 58.6146L48.4665 40.6953L65.8914 48.4508Z" fill="url(#paint4_linear_5192_23131)"/>
</g>
<path d="M31.0009 48.41L48.4258 58.6144L48.4258 40.6953L31.0009 48.41Z" fill="url(#paint5_linear_5192_23131)"/>
<path d="M48.3649 61.8588L48.4062 76.1424L31.0276 51.3867L48.3649 61.8588Z" fill="url(#paint6_linear_5192_23131)"/>
<path d="M48.3633 61.8585L48.404 76.145L65.7865 51.4355L48.3633 61.8585Z" fill="url(#paint7_linear_5192_23131)"/>
<defs>
<filter id="filter0_b_5192_23131" x="-3.77436" y="-11.5048" width="121.865" height="122.319" filterUnits="userSpaceOnUse" color-interpolation-filters="sRGB">
<feFlood flood-opacity="0" result="BackgroundImageFix"/>
<feGaussianBlur in="BackgroundImageFix" stdDeviation="26.1001"/>
<feComposite in2="SourceAlpha" operator="in" result="effect1_backgroundBlur_5192_23131"/>
<feBlend mode="normal" in="SourceGraphic" in2="effect1_backgroundBlur_5192_23131" result="shape"/>
</filter>
<linearGradient id="paint0_linear_5192_23131" x1="48" y1="0" x2="48" y2="96" gradientUnits="userSpaceOnUse">
<stop stop-color="#E2FAFF"/>
<stop offset="1" stop-color="#EBFFED"/>
</linearGradient>
<linearGradient id="paint1_linear_5192_23131" x1="86.4" y1="8.4" x2="-9" y2="114" gradientUnits="userSpaceOnUse">
<stop stop-color="#00D1FF"/>
<stop offset="1" stop-color="#B7FE21"/>
</linearGradient>
<linearGradient id="paint2_linear_5192_23131" x1="31" y1="23.7651" x2="53.5905" y2="37.9612" gradientUnits="userSpaceOnUse">
<stop offset="0.0677083" stop-color="#874FFF"/>
<stop offset="0.463542" stop-color="#36AFE2"/>
<stop offset="0.859375" stop-color="#57FF68"/>
</linearGradient>
<linearGradient id="paint3_linear_5192_23131" x1="65.8496" y1="23.7716" x2="43.2371" y2="37.957" gradientUnits="userSpaceOnUse">
<stop offset="0.0677083" stop-color="#874FFF"/>
<stop offset="0.463542" stop-color="#36AFE2"/>
<stop offset="0.859375" stop-color="#57FF68"/>
</linearGradient>
<linearGradient id="paint4_linear_5192_23131" x1="48.4258" y1="43.0702" x2="64.2401" y2="58.8627" gradientUnits="userSpaceOnUse">
<stop offset="0.0677083" stop-color="#874FFF"/>
<stop offset="0.463542" stop-color="#36AFE2"/>
<stop offset="0.859375" stop-color="#57FF68"/>
</linearGradient>
<linearGradient id="paint5_linear_5192_23131" x1="48.4258" y1="43.0701" x2="32.6118" y2="58.8257" gradientUnits="userSpaceOnUse">
<stop offset="0.0677083" stop-color="#874FFF"/>
<stop offset="0.463542" stop-color="#36AFE2"/>
<stop offset="0.859375" stop-color="#57FF68"/>
</linearGradient>
<linearGradient id="paint6_linear_5192_23131" x1="48.4062" y1="54.6676" x2="27.6936" y2="69.5652" gradientUnits="userSpaceOnUse">
<stop offset="0.0677083" stop-color="#874FFF"/>
<stop offset="0.463542" stop-color="#36AFE2"/>
<stop offset="0.859375" stop-color="#57FF68"/>
</linearGradient>
<linearGradient id="paint7_linear_5192_23131" x1="48.3633" y1="54.7103" x2="69.0663" y2="69.667" gradientUnits="userSpaceOnUse">
<stop offset="0.0677083" stop-color="#874FFF"/>
<stop offset="0.463542" stop-color="#36AFE2"/>
<stop offset="0.859375" stop-color="#57FF68"/>
</linearGradient>
</defs>
</svg>
