<svg width="80" height="80" viewBox="0 0 80 80" fill="none" xmlns="http://www.w3.org/2000/svg">
<path d="M1.82128 31.2627C10.5823 29.7684 27.3265 31.2512 31.1004 31.4899C31.3978 31.2692 32.6383 31.0501 32.816 30.7019C33.3473 29.6571 34.381 17.1661 35.3059 12.1877C35.7666 9.70745 36.3614 7.24522 37.1757 4.83857C37.5619 3.69738 37.9718 2.5431 38.4923 1.44441C38.8586 0.672712 39.9159 -0.479934 40.7265 0.213286C42.1773 1.45258 43.6844 5.5563 44.1595 6.78251C45.0989 9.21369 45.8479 11.7037 46.4028 14.2297C47.5091 19.2719 47.2515 30.6512 47.1826 31.1907C48.6461 30.7673 53.4229 26.4903 54.6615 25.2935C57.2839 22.7577 60.0023 20.3036 62.8042 17.9313C65.4827 15.6636 68.2266 13.4025 71.4057 11.7119C72.9272 10.9026 74.5448 10.2225 76.2604 9.82845C77.2851 9.59302 79.1439 9.13198 79.8004 10.2143C80.1776 10.8356 79.931 11.6154 79.7841 12.2645C79.63 12.9512 78.3496 16.9471 77.7729 18.224C76.6123 20.7892 75.1161 23.2236 73.3715 25.5027C69.8515 30.1002 65.3558 34.065 60.3541 37.348C59.7394 37.7518 57.0028 39.3868 56.8214 40.1241C56.6237 40.922 61.3098 50.9034 62.8876 53.7531C65.9996 59.3757 69.273 65.0474 70.78 71.2308C70.9686 72.0041 71.1282 72.7823 71.2552 73.5655C71.3676 74.2587 71.5254 74.9977 71.3875 75.6974C71.1518 76.8991 70.0129 77.5286 68.7144 77.3095C67.1675 77.0479 65.8708 76.0718 64.6431 75.2478C63.2521 74.3126 50.8604 63.5399 45.9984 59.155C44.7688 58.0448 39.5441 53.382 37.9301 54.0163C37.0832 54.3499 35.5308 57.4906 35.1083 58.2639C34.2632 59.8106 33.3909 61.3442 32.4895 62.8647C30.696 65.8942 28.7918 68.8699 26.7951 71.7948C25.8032 73.2466 24.7894 74.6887 23.7412 76.1078C22.8707 77.2882 21.8352 78.436 20.5186 79.2338C19.3598 79.9369 18.0014 80.2475 16.6667 79.7717C16.6104 79.7521 16.634 79.6181 16.5851 79.6082C13.3697 78.987 18.4729 63.6985 21.5432 56.217C22.3158 54.3335 23.1373 52.4647 23.9806 50.6058C24.4158 49.6444 26.4451 45.2971 26.3 44.7118C26.057 43.7325 21.4362 42.6354 20.2466 42.3166C17.889 41.6855 15.5314 41.0512 13.1757 40.4152C9.82611 39.511 1.94098 36.2983 0.560897 33.9064C0.28343 33.4241 -1.07671 31.7581 1.82128 31.2643V31.2627Z" fill="#FCE1A7"/>
<path d="M41.0806 34.0677C41.0388 33.9353 40.9645 33.8209 40.8575 33.7228L40.6798 33.5626C40.6018 33.4857 40.5075 33.4318 40.4005 33.4007C40.2971 33.3517 40.1865 33.3288 40.0668 33.3337C39.9471 33.3304 39.8365 33.3517 39.7331 33.4007C39.6261 33.4318 39.5336 33.4857 39.4538 33.5626C39.4085 33.6149 39.3632 33.6672 39.3178 33.7212C39.2399 33.8438 39.2 33.9746 39.2 34.1152C39.2108 34.1838 39.2199 34.2541 39.2308 34.3228C39.2725 34.4552 39.3468 34.5697 39.4538 34.6678L39.6316 34.828C39.7095 34.9049 39.8039 34.9588 39.9109 34.9899C40.0142 35.0389 40.1248 35.0618 40.2445 35.0569C40.3642 35.0602 40.4749 35.0389 40.5782 34.9899C40.6852 34.9588 40.7777 34.9049 40.8575 34.828C40.9028 34.7757 40.9482 34.7234 40.9935 34.6694C41.0715 34.5468 41.1114 34.416 41.1114 34.2754C41.1005 34.2067 41.0914 34.1364 41.0806 34.0677Z" fill="#F92B7A"/>
<path d="M41.0813 30.9443C41.0396 30.8119 40.9652 30.6975 40.8582 30.5994C40.8002 30.5585 40.7422 30.5176 40.6823 30.4767C40.5463 30.4064 40.4012 30.3704 40.2453 30.3704H40.0675C39.9478 30.3672 39.8372 30.3884 39.7339 30.4375C39.6269 30.4685 39.5344 30.5225 39.4546 30.5994C39.3693 30.6697 39.3095 30.7546 39.275 30.8511C39.2206 30.9443 39.1952 31.044 39.2007 31.152C39.2116 31.2206 39.2206 31.2909 39.2315 31.3596C39.2732 31.492 39.3476 31.6065 39.4546 31.7046C39.5126 31.7454 39.5706 31.7863 39.6305 31.8272C39.7665 31.8975 39.9116 31.9335 40.0675 31.9335H40.2453C40.3649 31.9367 40.4756 31.9155 40.579 31.8664C40.686 31.8354 40.7784 31.7814 40.8582 31.7046C40.9435 31.6342 41.0033 31.5493 41.0378 31.4528C41.0922 31.3596 41.1176 31.2599 41.1121 31.152C41.1012 31.0833 41.0922 31.013 41.0813 30.9443Z" fill="#F92B7A"/>
<path d="M41.6601 26.4071C41.6256 26.3106 41.5658 26.2272 41.4805 26.1553C41.4025 26.0785 41.3083 26.0245 41.2013 25.9935C41.0979 25.9444 40.9873 25.9215 40.8676 25.9264C40.7914 25.9362 40.7134 25.9444 40.6372 25.9542C40.4903 25.9918 40.3634 26.0588 40.2546 26.1553C40.2093 26.2076 40.1639 26.2599 40.1186 26.3139C40.0406 26.4365 40.0007 26.5673 40.0007 26.7079V26.8682C39.9953 26.9761 40.0207 27.0758 40.0751 27.169C40.1095 27.2654 40.1694 27.3488 40.2546 27.4208C40.3326 27.4976 40.4269 27.5516 40.5339 27.5826C40.6373 27.6317 40.7479 27.6545 40.8676 27.6496C40.9437 27.6398 41.0217 27.6317 41.0979 27.6219C41.2448 27.5843 41.3717 27.5172 41.4805 27.4208C41.5259 27.3684 41.5712 27.3161 41.6165 27.2622C41.6945 27.1396 41.7344 27.0088 41.7344 26.8682V26.7079C41.7381 26.6 41.7145 26.5003 41.6601 26.4071Z" fill="#F92B7A"/>
<path d="M41.0806 22.2162C41.0388 22.0838 40.9645 21.9693 40.8575 21.8712C40.7977 21.8172 40.7396 21.7649 40.6798 21.711C40.6018 21.6341 40.5075 21.5802 40.4005 21.5491C40.2971 21.5001 40.1865 21.4772 40.0668 21.4821C39.9471 21.4788 39.8365 21.5001 39.7331 21.5491C39.6261 21.5802 39.5336 21.6341 39.4538 21.711C39.4085 21.7633 39.3632 21.8156 39.3178 21.8696C39.2399 21.9922 39.2 22.123 39.2 22.2636C39.2108 22.3323 39.2199 22.4026 39.2308 22.4713C39.2725 22.6037 39.3468 22.7181 39.4538 22.8162L39.6316 22.9764C39.7095 23.0533 39.8039 23.1072 39.9109 23.1383C40.0142 23.1873 40.1248 23.2102 40.2445 23.2053C40.3642 23.2102 40.4749 23.1873 40.5782 23.1383C40.6852 23.1072 40.7777 23.0533 40.8575 22.9764C40.9028 22.9241 40.9482 22.8718 40.9935 22.8178C41.0715 22.6952 41.1114 22.5644 41.1114 22.4238C41.1005 22.3552 41.0914 22.2849 41.0806 22.2162Z" fill="#F92B7A"/>
<path d="M41.0813 17.6113C41.0396 17.4789 40.9652 17.3644 40.8582 17.2664C40.8002 17.2255 40.7422 17.1846 40.6823 17.1437C40.5463 17.0734 40.4012 17.0374 40.2453 17.0374H40.0675C39.9478 17.0342 39.8372 17.0554 39.7339 17.1045C39.6269 17.1356 39.5344 17.1895 39.4546 17.2664C39.3693 17.3367 39.3095 17.4217 39.275 17.5181C39.2206 17.6113 39.1952 17.711 39.2007 17.8189C39.2116 17.8876 39.2206 17.9579 39.2315 18.0266C39.2732 18.159 39.3476 18.2735 39.4546 18.3716C39.5126 18.4125 39.5706 18.4533 39.6305 18.4942C39.7665 18.5645 39.9116 18.6005 40.0675 18.6005H40.2453C40.3649 18.6037 40.4756 18.5825 40.579 18.5334C40.686 18.5024 40.7784 18.4484 40.8582 18.3716C40.9435 18.3013 41.0033 18.2163 41.0378 18.1198C41.0922 18.0266 41.1176 17.9269 41.1121 17.8189C41.1012 17.7503 41.0922 17.68 41.0813 17.6113Z" fill="#F92B7A"/>
<path d="M40.0371 14.0742C38.9218 14.0742 38.92 15.6372 40.0371 15.6372C41.1542 15.6372 41.1542 14.0742 40.0371 14.0742Z" fill="#F92B7A"/>
<path d="M41.0813 10.2041C41.0396 10.0716 40.9652 9.95718 40.8582 9.85909C40.8002 9.81821 40.7422 9.77734 40.6823 9.73646C40.5463 9.66616 40.4012 9.63021 40.2453 9.63021H40.0675C39.9478 9.62694 39.8372 9.64818 39.7339 9.69723C39.6269 9.72829 39.5344 9.78224 39.4546 9.85909C39.3693 9.92939 39.3095 10.0144 39.275 10.1109C39.2206 10.2041 39.1952 10.3038 39.2007 10.4117C39.2116 10.4804 39.2206 10.5507 39.2315 10.6194C39.2732 10.7518 39.3476 10.8662 39.4546 10.9643C39.5126 11.0052 39.5706 11.0461 39.6305 11.0869C39.7665 11.1572 39.9116 11.1932 40.0675 11.1932H40.2453C40.3649 11.1965 40.4756 11.1752 40.579 11.1262C40.686 11.0951 40.7784 11.0412 40.8582 10.9643C40.9435 10.894 41.0033 10.809 41.0378 10.7125C41.0922 10.6193 41.1176 10.5196 41.1121 10.4117C41.1012 10.3431 41.0922 10.2727 41.0813 10.2041Z" fill="#F92B7A"/>
<path d="M40.0371 5.92578C38.9218 5.92578 38.92 7.48881 40.0371 7.48881C41.1542 7.48881 41.1542 5.92578 40.0371 5.92578Z" fill="#F92B7A"/>
<path d="M41.0813 3.53709C41.0396 3.40466 40.9652 3.29019 40.8582 3.19209C40.8002 3.15122 40.7422 3.11035 40.6823 3.06947C40.5463 2.99917 40.4012 2.96322 40.2453 2.96322H40.0675C39.9478 2.95995 39.8372 2.98119 39.7339 3.03024C39.6269 3.0613 39.5344 3.11525 39.4546 3.19209C39.3693 3.2624 39.3095 3.34742 39.275 3.44388C39.2206 3.53708 39.1952 3.63682 39.2007 3.74473C39.2116 3.8134 39.2206 3.8837 39.2315 3.95237C39.2732 4.0848 39.3476 4.19923 39.4546 4.29732C39.5126 4.3382 39.5706 4.37907 39.6305 4.41995C39.7665 4.49025 39.9116 4.5262 40.0675 4.5262H40.2453C40.3649 4.52947 40.4756 4.50823 40.579 4.45918C40.686 4.42812 40.7784 4.37417 40.8582 4.29732C40.9435 4.22702 41.0033 4.142 41.0378 4.04553C41.0922 3.95234 41.1176 3.85264 41.1121 3.74473C41.1012 3.67606 41.0922 3.60575 41.0813 3.53709Z" fill="#F92B7A"/>
<path d="M41.8813 37.6113C41.8396 37.4789 41.7653 37.3644 41.6583 37.2663C41.6002 37.2254 41.5422 37.1846 41.4823 37.1437C41.3463 37.0734 41.2013 37.0374 41.0453 37.0374H40.8676C40.7479 37.0342 40.6373 37.0554 40.5339 37.1045C40.4269 37.1355 40.3344 37.1895 40.2546 37.2663C40.1694 37.3366 40.1095 37.4216 40.0751 37.5181C40.0207 37.6113 39.9953 37.711 40.0007 37.8189C40.0116 37.8876 40.0207 37.9579 40.0315 38.0266C40.0732 38.159 40.1476 38.2734 40.2546 38.3715C40.3126 38.4124 40.3707 38.4533 40.4305 38.4942C40.5665 38.5645 40.7116 38.6004 40.8676 38.6004H41.0453C41.165 38.6037 41.2756 38.5825 41.379 38.5334C41.486 38.5023 41.5803 38.4484 41.6583 38.3715C41.7435 38.3012 41.8034 38.2162 41.8378 38.1198C41.8922 38.0266 41.9176 37.9268 41.9121 37.8189C41.9013 37.7502 41.8922 37.68 41.8813 37.6113Z" fill="#F92B7A"/>
<path d="M45.8813 37.6113C45.8396 37.4789 45.7653 37.3644 45.6583 37.2664C45.6002 37.2255 45.5422 37.1846 45.4824 37.1437C45.3464 37.0734 45.2013 37.0374 45.0453 37.0374H44.8676C44.7479 37.0342 44.6373 37.0554 44.5339 37.1045C44.4269 37.1356 44.3344 37.1895 44.2546 37.2664C44.1694 37.3367 44.1095 37.4217 44.0751 37.5181C44.0207 37.6113 43.9953 37.711 44.0007 37.8189C44.0116 37.8876 44.0207 37.9579 44.0316 38.0266C44.0733 38.159 44.1476 38.2735 44.2546 38.3716C44.3126 38.4125 44.3707 38.4533 44.4305 38.4942C44.5665 38.5645 44.7116 38.6005 44.8676 38.6005H45.0453C45.165 38.6054 45.2756 38.5825 45.379 38.5334C45.486 38.5024 45.5785 38.4484 45.6583 38.3716C45.7435 38.3013 45.8034 38.2163 45.8378 38.1198C45.8922 38.0266 45.9176 37.9269 45.9122 37.8189C45.9013 37.7503 45.8922 37.68 45.8813 37.6113Z" fill="#F92B7A"/>
<path d="M50.4598 36.037C50.4253 35.9406 50.3655 35.8572 50.2802 35.7852C50.2023 35.7084 50.108 35.6544 50.001 35.6234C49.8976 35.5743 49.787 35.5514 49.6673 35.5563C49.5911 35.5661 49.5131 35.5743 49.437 35.5841C49.2901 35.6217 49.1631 35.6888 49.0543 35.7852C49.009 35.8375 48.9636 35.8899 48.9183 35.9438C48.8403 36.0664 48.8004 36.1972 48.8004 36.3378V36.498C48.7968 36.606 48.8204 36.7057 48.8748 36.7989C48.9092 36.8954 48.9691 36.9787 49.0543 37.0507C49.1323 37.1275 49.2266 37.1815 49.3336 37.2125C49.437 37.2616 49.5476 37.2845 49.6673 37.2796C49.7434 37.2698 49.8214 37.2616 49.8976 37.2518C50.0445 37.2142 50.1714 37.1471 50.2802 37.0507C50.3256 36.9984 50.3709 36.9461 50.4163 36.8921C50.4942 36.7695 50.5341 36.6387 50.5341 36.498V36.3378C50.5378 36.2299 50.5142 36.1302 50.4598 36.037Z" fill="#F92B7A"/>
<path d="M55.2371 31.8516C54.1218 31.8516 54.1199 33.4146 55.2371 33.4146C56.3542 33.4146 56.3542 31.8516 55.2371 31.8516Z" fill="#F92B7A"/>
<path d="M61.0806 28.8832C61.0388 28.7507 60.9645 28.6363 60.8575 28.5382L60.6798 28.378C60.6018 28.3011 60.5075 28.2472 60.4005 28.2161C60.2971 28.1671 60.1865 28.1442 60.0668 28.1491C59.9471 28.1458 59.8365 28.1671 59.7331 28.2161C59.6261 28.2472 59.5336 28.3011 59.4538 28.378C59.4085 28.4303 59.3631 28.4826 59.3178 28.5366C59.2398 28.6592 59.2 28.79 59.2 28.9306C59.2108 28.9993 59.2199 29.0696 59.2308 29.1382C59.2725 29.2707 59.3468 29.3851 59.4538 29.4832L59.6316 29.6434C59.7095 29.7203 59.8038 29.7742 59.9108 29.8053C60.0142 29.8543 60.1248 29.8772 60.2445 29.8723C60.3642 29.8756 60.4748 29.8543 60.5782 29.8053C60.6852 29.7742 60.7795 29.7203 60.8575 29.6434C60.9028 29.5911 60.9482 29.5388 60.9935 29.4848C61.0715 29.3622 61.1114 29.2314 61.1114 29.0908C61.1005 29.0222 61.0914 28.9518 61.0806 28.8832Z" fill="#F92B7A"/>
<path d="M66.6814 24.2783C66.6397 24.1459 66.5653 24.0314 66.4583 23.9333C66.4003 23.8925 66.3423 23.8516 66.2824 23.8107C66.1464 23.7404 66.0013 23.7044 65.8453 23.7044H65.6676C65.5479 23.7012 65.4373 23.7224 65.3339 23.7714C65.2269 23.8025 65.1345 23.8565 65.0547 23.9333C64.9694 24.0036 64.9096 24.0886 64.8751 24.1851C64.8207 24.2783 64.7953 24.378 64.8008 24.4859C64.8117 24.5546 64.8207 24.6249 64.8316 24.6936C64.8733 24.826 64.9477 24.9404 65.0547 25.0385C65.1127 25.0794 65.1707 25.1203 65.2306 25.1612C65.3666 25.2315 65.5116 25.2675 65.6676 25.2675H65.8453C65.965 25.2707 66.0757 25.2495 66.179 25.2004C66.286 25.1694 66.3785 25.1154 66.4583 25.0385C66.5436 24.9682 66.6034 24.8832 66.6379 24.7868C66.6923 24.6936 66.7176 24.5938 66.7122 24.4859C66.7013 24.4173 66.6923 24.347 66.6814 24.2783Z" fill="#F92B7A"/>
<path d="M71.4815 19.8329C71.4397 19.7005 71.3654 19.5861 71.2584 19.488C71.2004 19.4471 71.1423 19.4062 71.0824 19.3654C70.9464 19.2951 70.8014 19.2591 70.6454 19.2591H70.4677C70.348 19.2558 70.2374 19.2771 70.134 19.3261C70.027 19.3572 69.9327 19.4111 69.8547 19.488C69.7695 19.5583 69.7096 19.6433 69.6752 19.7398C69.6208 19.833 69.5954 19.9327 69.6008 20.0406C69.6117 20.1093 69.6208 20.1796 69.6316 20.2482C69.6733 20.3807 69.7477 20.4951 69.8547 20.5932C69.9127 20.6341 69.9708 20.675 70.0306 20.7158C70.1667 20.7861 70.3117 20.8221 70.4677 20.8221H70.6454C70.7651 20.8254 70.8757 20.8041 70.9791 20.7551C71.0861 20.724 71.1786 20.6701 71.2584 20.5932C71.3436 20.5229 71.4035 20.4379 71.4379 20.3414C71.4923 20.2482 71.5177 20.1485 71.5123 20.0406C71.5014 19.9719 71.4923 19.9016 71.4815 19.8329Z" fill="#F92B7A"/>
<path d="M74.6814 15.3886C74.6396 15.2562 74.5653 15.1418 74.4583 15.0437C74.4003 15.0028 74.3422 14.9619 74.2824 14.9211C74.1464 14.8508 74.0013 14.8148 73.8454 14.8148H73.6676C73.5479 14.8115 73.4373 14.8327 73.3339 14.8818C73.2269 14.9129 73.1344 14.9669 73.0546 15.0437C72.9694 15.114 72.9096 15.199 72.8751 15.2954C72.8207 15.3886 72.7953 15.4884 72.8008 15.5963C72.8117 15.665 72.8207 15.7353 72.8316 15.8039C72.8733 15.9364 72.9476 16.0508 73.0546 16.1489C73.1127 16.1898 73.1707 16.2306 73.2305 16.2715C73.3666 16.3418 73.5117 16.3778 73.6676 16.3778H73.8454C73.965 16.3827 74.0756 16.3598 74.179 16.3108C74.286 16.2797 74.3785 16.2257 74.4583 16.1489C74.5435 16.0786 74.6034 15.9936 74.6378 15.8971C74.6922 15.8039 74.7176 15.7042 74.7122 15.5963C74.7013 15.5276 74.6922 15.4573 74.6814 15.3886Z" fill="#F92B7A"/>
<path d="M77.6597 12.3329C77.6253 12.2365 77.5654 12.1531 77.4802 12.0811C77.4022 12.0043 77.3079 11.9503 77.2009 11.9193C77.0976 11.8702 76.9869 11.8473 76.8672 11.8522C76.7911 11.862 76.7131 11.8702 76.6369 11.88C76.49 11.9176 76.3631 11.9847 76.2543 12.0811C76.2089 12.1334 76.1636 12.1858 76.1183 12.2397C76.0403 12.3623 76.0004 12.4931 76.0004 12.6337V12.7939C75.9967 12.9019 76.0203 13.0016 76.0747 13.0948C76.1092 13.1913 76.169 13.2746 76.2543 13.3466C76.3323 13.4234 76.4266 13.4774 76.5336 13.5084C76.6369 13.5575 76.7475 13.5804 76.8672 13.5755C76.9434 13.5656 77.0214 13.5575 77.0975 13.5477C77.2444 13.5101 77.3714 13.443 77.4802 13.3466C77.5256 13.2943 77.5709 13.2419 77.6162 13.188C77.6942 13.0654 77.7341 12.9346 77.7341 12.7939V12.6337C77.7377 12.5258 77.7142 12.4261 77.6597 12.3329Z" fill="#F92B7A"/>
<path d="M38.0488 38.5164C37.9672 38.2613 37.7714 38.0226 37.5048 37.9033C37.3271 37.8232 37.1693 37.779 36.9662 37.7774C36.7486 37.7757 36.6198 37.8264 36.4276 37.9049C36.326 37.954 36.2462 38.021 36.1846 38.106C36.1084 38.1812 36.0558 38.2695 36.0286 38.3709C35.9724 38.5572 35.9978 38.8074 36.1157 38.9725C36.2354 39.1393 36.4131 39.2864 36.6343 39.3322C36.6506 39.3339 36.6652 39.3355 36.6815 39.3371C36.7123 39.3584 36.7413 39.3813 36.7758 39.3992C36.9608 39.4973 37.2346 39.5382 37.4431 39.4777C37.6535 39.4172 37.8548 39.2995 37.9618 39.118C38.0706 38.9333 38.1141 38.7224 38.0488 38.5164Z" fill="#F92B7A"/>
<path d="M33.0813 38.3515C33.0396 38.2191 32.9652 38.1046 32.8582 38.0065C32.8002 37.9657 32.7422 37.9248 32.6823 37.8839C32.5463 37.8136 32.4012 37.7777 32.2453 37.7777H32.0675C31.9478 37.7744 31.8372 37.7956 31.7339 37.8447C31.6269 37.8758 31.5344 37.9297 31.4546 38.0065C31.3693 38.0769 31.3095 38.1619 31.275 38.2583C31.2206 38.3515 31.1952 38.4513 31.2007 38.5592C31.2116 38.6279 31.2206 38.6982 31.2315 38.7668C31.2732 38.8993 31.3476 39.0137 31.4546 39.1118C31.5126 39.1527 31.5706 39.1935 31.6305 39.2344C31.7665 39.3047 31.9116 39.3407 32.0675 39.3407H32.2453C32.3649 39.344 32.4756 39.3227 32.579 39.2736C32.686 39.2426 32.7784 39.1886 32.8582 39.1118C32.9435 39.0415 33.0033 38.9565 33.0378 38.86C33.0922 38.7668 33.1176 38.6671 33.1121 38.5592C33.1012 38.4905 33.0922 38.4202 33.0813 38.3515Z" fill="#F92B7A"/>
<path d="M26.4373 36.2959C25.322 36.2959 25.3201 37.8589 26.4373 37.8589C27.5544 37.8589 27.5544 36.2959 26.4373 36.2959Z" fill="#F92B7A"/>
<path d="M21.6372 34.8145C20.5219 34.8145 20.5201 36.3775 21.6372 36.3775C22.7543 36.3775 22.7543 34.8145 21.6372 34.8145Z" fill="#F92B7A"/>
<path d="M16 34.829V34.9271C16 35.9326 17.7337 35.9342 17.7337 34.9271V34.829C17.7337 33.8235 16 33.8218 16 34.829Z" fill="#F92B7A"/>
<path d="M13.0813 33.9072C13.0396 33.7748 12.9652 33.6603 12.8582 33.5623C12.8002 33.5214 12.7421 33.4805 12.6823 33.4396C12.5463 33.3693 12.4012 33.3333 12.2453 33.3333H12.0675C11.9478 33.3301 11.8372 33.3513 11.7338 33.4004C11.6268 33.4315 11.5344 33.4854 11.4546 33.5623C11.3693 33.6326 11.3095 33.7175 11.275 33.814C11.2206 33.9072 11.1952 34.0069 11.2007 34.1148C11.2116 34.1835 11.2206 34.2538 11.2315 34.3225C11.2732 34.4549 11.3476 34.5694 11.4546 34.6675C11.5126 34.7084 11.5706 34.7492 11.6305 34.7901C11.7665 34.8604 11.9116 34.8964 12.0675 34.8964H12.2453C12.3649 34.8996 12.4756 34.8784 12.5789 34.8293C12.6859 34.7983 12.7784 34.7443 12.8582 34.6675C12.9435 34.5972 13.0033 34.5122 13.0378 34.4157C13.0922 34.3225 13.1175 34.2228 13.1121 34.1148C13.1012 34.0462 13.0922 33.9759 13.0813 33.9072Z" fill="#F92B7A"/>
<path d="M9.08128 33.167C9.03957 33.0345 8.96522 32.9201 8.85822 32.822C8.80019 32.7811 8.74216 32.7402 8.68232 32.6994C8.5463 32.6291 8.40122 32.5931 8.24526 32.5931H8.06754C7.94784 32.5898 7.83723 32.6111 7.73386 32.6601C7.62686 32.6912 7.53255 32.7451 7.45457 32.822C7.36933 32.8923 7.30949 32.9773 7.27503 33.0738C7.22063 33.167 7.19523 33.2667 7.20067 33.3746C7.21155 33.4433 7.22063 33.5136 7.23151 33.5823C7.27322 33.7147 7.34757 33.8291 7.45457 33.9272C7.5126 33.9681 7.57063 34.009 7.63047 34.0498C7.76649 34.1201 7.91157 34.1561 8.06754 34.1561H8.24526C8.36495 34.1594 8.47557 34.1381 8.57894 34.0891C8.68593 34.058 8.77843 34.004 8.85822 33.9272C8.94346 33.8569 9.0033 33.7719 9.03776 33.6754C9.09216 33.5822 9.11756 33.4825 9.11212 33.3746C9.10124 33.3059 9.09216 33.2356 9.08128 33.167Z" fill="#F92B7A"/>
<path d="M4.85968 33.0741C4.82522 32.9777 4.76538 32.8943 4.68014 32.8223C4.60216 32.7455 4.50785 32.6915 4.40086 32.6605C4.29749 32.6114 4.18687 32.5885 4.06718 32.5934C3.99101 32.6032 3.91302 32.6114 3.83686 32.6212C3.68996 32.6588 3.56302 32.7259 3.45421 32.8223C3.40887 32.8747 3.36353 32.927 3.3182 32.9809C3.24021 33.1035 3.20031 33.2343 3.20031 33.3749V33.5352C3.19669 33.6431 3.22027 33.7428 3.27467 33.836C3.30913 33.9325 3.36897 34.0159 3.45421 34.0878C3.53219 34.1646 3.6265 34.2186 3.7335 34.2497C3.83687 34.2987 3.94748 34.3216 4.06718 34.3167C4.14334 34.3069 4.22133 34.2987 4.2975 34.2889C4.44439 34.2513 4.57133 34.1843 4.68014 34.0878C4.72548 34.0355 4.77082 33.9832 4.81616 33.9292C4.89414 33.8066 4.93404 33.6758 4.93404 33.5352V33.3749C4.93767 33.267 4.91408 33.1673 4.85968 33.0741Z" fill="#F92B7A"/>
<path d="M39.2371 40.7412C38.1218 40.7412 38.1199 42.3042 39.2371 42.3042C40.3542 42.3042 40.3542 40.7412 39.2371 40.7412Z" fill="#F92B7A"/>
<path d="M35.2371 42.9629C34.1218 42.9629 34.1199 44.5259 35.2371 44.5259C36.3542 44.5259 36.3542 42.9629 35.2371 42.9629Z" fill="#F92B7A"/>
<path d="M33.0813 47.9814C33.0396 47.849 32.9652 47.7345 32.8582 47.6364C32.8002 47.5956 32.7422 47.5547 32.6823 47.5138C32.5463 47.4435 32.4012 47.4076 32.2453 47.4076H32.0675C31.9478 47.4043 31.8372 47.4255 31.7338 47.4746C31.6268 47.5056 31.5344 47.5596 31.4546 47.6364C31.3693 47.7067 31.3095 47.7918 31.275 47.8882C31.2206 47.9814 31.1952 48.0811 31.2007 48.189C31.2116 48.2577 31.2206 48.328 31.2315 48.3967C31.2732 48.5291 31.3476 48.6436 31.4546 48.7417C31.5126 48.7825 31.5706 48.8234 31.6305 48.8643C31.7665 48.9346 31.9116 48.9705 32.0675 48.9705H32.2453C32.3649 48.9738 32.4756 48.9526 32.5789 48.9035C32.6859 48.8725 32.7784 48.8185 32.8582 48.7417C32.9435 48.6714 33.0033 48.5863 33.0378 48.4899C33.0922 48.3967 33.1176 48.2969 33.1121 48.189C33.1012 48.1204 33.0922 48.0501 33.0813 47.9814Z" fill="#F92B7A"/>
<path d="M30.4598 52.3329C30.4253 52.2364 30.3655 52.153 30.2802 52.0811C30.2023 52.0042 30.108 51.9503 30.001 51.9192C29.8976 51.8702 29.787 51.8473 29.6673 51.8522C29.5911 51.862 29.5131 51.8702 29.437 51.88C29.2901 51.9176 29.1631 51.9846 29.0543 52.0811C29.009 52.1334 28.9636 52.1858 28.9183 52.2397C28.8403 52.3623 28.8004 52.4931 28.8004 52.6337V52.7939C28.7968 52.9019 28.8204 53.0016 28.8748 53.0948C28.9092 53.1913 28.9691 53.2763 29.0543 53.3466C29.1323 53.4234 29.2266 53.4774 29.3336 53.5084C29.437 53.5575 29.5476 53.5804 29.6673 53.5755C29.7434 53.5657 29.8214 53.5575 29.8976 53.5477C30.0445 53.5101 30.1714 53.443 30.2802 53.3466C30.3256 53.2943 30.3709 53.2419 30.4163 53.188C30.4942 53.0653 30.5341 52.9346 30.5341 52.7939V52.6337C30.5378 52.5258 30.5142 52.4261 30.4598 52.3329Z" fill="#F92B7A"/>
<path d="M27.2371 55.5557C26.1218 55.5557 26.1199 57.1186 27.2371 57.1186C28.3542 57.1186 28.3542 55.5557 27.2371 55.5557Z" fill="#F92B7A"/>
<path d="M24.8372 60.7412C23.7219 60.7412 23.72 62.3042 24.8372 62.3042C25.9543 62.3042 25.9543 60.7412 24.8372 60.7412Z" fill="#F92B7A"/>
<path d="M23.2371 65.1855C22.1218 65.1855 22.1199 66.7486 23.2371 66.7486C24.3542 66.7486 24.3542 65.1855 23.2371 65.1855Z" fill="#F92B7A"/>
<path d="M21.6372 70.3701C20.5219 70.3701 20.5201 71.9331 21.6372 71.9331C22.7543 71.9331 22.7543 70.3701 21.6372 70.3701Z" fill="#F92B7A"/>
<path d="M19.2371 74.8145C18.1218 74.8145 18.1199 76.3775 19.2371 76.3775C20.3542 76.3775 20.3542 74.8145 19.2371 74.8145Z" fill="#F92B7A"/>
<path d="M19.2598 77.5185C19.2254 77.422 19.1655 77.3386 19.0803 77.2667C19.0023 77.1898 18.908 77.1359 18.801 77.1048C18.6976 77.0558 18.587 77.0329 18.4673 77.0378C18.3912 77.0476 18.3132 77.0558 18.237 77.0656C18.0901 77.1032 17.9632 77.1702 17.8544 77.2667C17.809 77.319 17.7637 77.3713 17.7183 77.4253C17.6404 77.5479 17.6005 77.6787 17.6005 77.8193V77.9795C17.5968 78.0874 17.6204 78.1871 17.6748 78.2803C17.7093 78.3768 17.7691 78.4602 17.8544 78.5321C17.9323 78.609 18.0266 78.6629 18.1336 78.694C18.237 78.743 18.3476 78.7659 18.4673 78.761C18.5435 78.7512 18.6215 78.743 18.6976 78.7332C18.8445 78.6956 18.9715 78.6286 19.0803 78.5321C19.1256 78.4798 19.171 78.4275 19.2163 78.3735C19.2943 78.2509 19.3342 78.1201 19.3342 77.9795V77.8193C19.3378 77.7114 19.3142 77.6117 19.2598 77.5185Z" fill="#F92B7A"/>
<path d="M43.2371 40.7412C42.1218 40.7412 42.1199 42.3042 43.2371 42.3042C44.3542 42.3042 44.3542 40.7412 43.2371 40.7412Z" fill="#F92B7A"/>
<path d="M45.6372 44.4443C44.5219 44.4443 44.5201 46.0073 45.6372 46.0073C46.7543 46.0073 46.7543 44.4443 45.6372 44.4443Z" fill="#F92B7A"/>
<path d="M49.6597 47.8885C49.6252 47.7921 49.5654 47.7087 49.4802 47.6368C49.4022 47.5599 49.3079 47.506 49.2009 47.4749C49.0975 47.4258 48.9869 47.403 48.8672 47.4079C48.791 47.4177 48.7131 47.4258 48.6369 47.4357C48.49 47.4733 48.363 47.5403 48.2542 47.6368C48.2089 47.6891 48.1636 47.7414 48.1182 47.7953C48.0402 47.918 48.0004 48.0487 48.0004 48.1893V48.3496C47.9967 48.4575 48.0203 48.5572 48.0747 48.6504C48.1092 48.7469 48.169 48.8303 48.2542 48.9022C48.3322 48.979 48.4265 49.033 48.5335 49.0641C48.6369 49.1131 48.7475 49.136 48.8672 49.1311C48.9434 49.1213 49.0214 49.1131 49.0975 49.1033C49.2444 49.0657 49.3714 48.9987 49.4802 48.9022C49.5255 48.8499 49.5708 48.7976 49.6162 48.7436C49.6942 48.621 49.7341 48.4902 49.7341 48.3496V48.1893C49.7377 48.0814 49.7141 47.9817 49.6597 47.8885Z" fill="#F92B7A"/>
<path d="M52.0371 50.3701C50.9218 50.3701 50.92 51.9331 52.0371 51.9331C53.1542 51.9331 53.1542 50.3701 52.0371 50.3701Z" fill="#F92B7A"/>
<path d="M54.4598 53.0741C54.4253 52.9776 54.3655 52.8942 54.2802 52.8223C54.2023 52.7455 54.108 52.6915 54.001 52.6604C53.8976 52.6114 53.787 52.5885 53.6673 52.5934C53.5911 52.6032 53.5131 52.6114 53.437 52.6212C53.2901 52.6588 53.1631 52.7258 53.0543 52.8223C53.009 52.8746 52.9636 52.9269 52.9183 52.9809C52.8403 53.1035 52.8004 53.2343 52.8004 53.3749V53.5352C52.7968 53.6431 52.8204 53.7428 52.8748 53.836C52.9092 53.9324 52.9691 54.0175 53.0543 54.0878C53.1323 54.1646 53.2266 54.2185 53.3336 54.2496C53.437 54.2987 53.5476 54.3216 53.6673 54.3167C53.7434 54.3069 53.8214 54.2987 53.8976 54.2888C54.0445 54.2512 54.1714 54.1842 54.2802 54.0878C54.3256 54.0354 54.3709 53.9831 54.4163 53.9292C54.4942 53.8065 54.5341 53.6758 54.5341 53.5352V53.3749C54.5378 53.267 54.5142 53.1673 54.4598 53.0741Z" fill="#F92B7A"/>
<path d="M57.8813 56.1302C57.8396 55.9978 57.7653 55.8833 57.6583 55.7852C57.6002 55.7443 57.5422 55.7034 57.4823 55.6626C57.3463 55.5923 57.2013 55.5563 57.0453 55.5563H56.8676C56.7479 55.5514 56.6373 55.5743 56.5339 55.6233C56.4269 55.6544 56.3344 55.7083 56.2546 55.7852C56.1694 55.8555 56.1095 55.9405 56.0751 56.037C56.0207 56.1302 55.9953 56.2299 56.0007 56.3378C56.0116 56.4065 56.0207 56.4768 56.0315 56.5454C56.0732 56.6779 56.1476 56.7923 56.2546 56.8904C56.3126 56.9313 56.3707 56.9722 56.4305 57.013C56.5665 57.0833 56.7116 57.1193 56.8676 57.1193H57.0453C57.165 57.1226 57.2756 57.1013 57.379 57.0523C57.486 57.0212 57.5785 56.9673 57.6583 56.8904C57.7435 56.8201 57.8034 56.7351 57.8378 56.6386C57.8922 56.5454 57.9176 56.4457 57.9121 56.3378C57.9013 56.2691 57.8922 56.1989 57.8813 56.1302Z" fill="#F92B7A"/>
<path d="M59.2371 59.2588C58.1218 59.2588 58.1199 60.8218 59.2371 60.8218C60.3542 60.8218 60.3542 59.2588 59.2371 59.2588Z" fill="#F92B7A"/>
<path d="M62.4598 63.4442C62.4253 63.3477 62.3655 63.2644 62.2802 63.1924C62.2023 63.1156 62.108 63.0616 62.001 63.0306C61.8976 62.9815 61.787 62.9586 61.6673 62.9635C61.5911 62.9734 61.5131 62.9815 61.437 62.9913C61.2901 63.0289 61.1631 63.096 61.0543 63.1924C61.009 63.2447 60.9636 63.2971 60.9183 63.351C60.8403 63.4736 60.8004 63.6044 60.8004 63.7451V63.9053C60.7968 64.0132 60.8204 64.1129 60.8748 64.2061C60.9092 64.3025 60.9691 64.3876 61.0543 64.4579C61.1323 64.5347 61.2266 64.5887 61.3336 64.6197C61.437 64.6688 61.5476 64.6917 61.6673 64.6868C61.7434 64.677 61.8214 64.6688 61.8976 64.659C62.0445 64.6214 62.1714 64.5543 62.2802 64.4579C62.3256 64.4056 62.3709 64.3532 62.4163 64.2993C62.4942 64.1767 62.5341 64.0459 62.5341 63.9053V63.7451C62.5378 63.6371 62.5142 63.5374 62.4598 63.4442Z" fill="#F92B7A"/>
<path d="M64.8597 66.4071C64.8252 66.3106 64.7654 66.2272 64.6801 66.1553C64.6022 66.0785 64.5079 66.0245 64.4009 65.9935C64.2975 65.9444 64.1869 65.9215 64.0672 65.9264C63.991 65.9362 63.913 65.9444 63.8369 65.9542C63.69 65.9918 63.563 66.0588 63.4542 66.1553C63.4089 66.2076 63.3635 66.2599 63.3182 66.3139C63.2402 66.4365 63.2003 66.5673 63.2003 66.7079V66.8682C63.1967 66.9761 63.2203 67.0758 63.2747 67.169C63.3091 67.2654 63.369 67.3488 63.4542 67.4208C63.5322 67.4976 63.6265 67.5516 63.7335 67.5826C63.8369 67.6317 63.9475 67.6545 64.0672 67.6496C64.1433 67.6398 64.2213 67.6317 64.2975 67.6219C64.4444 67.5843 64.5713 67.5172 64.6801 67.4208C64.7255 67.3684 64.7708 67.3161 64.8162 67.2622C64.8941 67.1396 64.934 67.0088 64.934 66.8682V66.7079C64.9377 66.6 64.9141 66.5003 64.8597 66.4071Z" fill="#F92B7A"/>
<path d="M66.2799 69.118C66.1294 68.9823 65.8827 68.881 65.6669 68.8891C65.442 68.8989 65.2099 68.9643 65.0539 69.118C64.898 69.2717 64.8 69.4581 64.8 69.6706V69.9895C64.8 70.1906 64.8962 70.3998 65.0539 70.542C65.2045 70.6777 65.4511 70.7791 65.6669 70.771C65.8918 70.7612 66.1239 70.6957 66.2799 70.542C66.4358 70.39 66.5338 70.202 66.5338 69.9895V69.6706C66.5338 69.4695 66.4377 69.2603 66.2799 69.118Z" fill="#F92B7A"/>
<path d="M68.8597 73.8143C68.8252 73.7179 68.7654 73.6328 68.6801 73.5625C68.6021 73.4857 68.5078 73.4317 68.4008 73.4007C68.2975 73.3516 68.1869 73.3288 68.0672 73.3337C67.991 73.3435 67.913 73.3516 67.8369 73.3614C67.69 73.399 67.563 73.4661 67.4542 73.5625C67.4088 73.6149 67.3635 73.6672 67.3182 73.7212C67.2402 73.8438 67.2003 73.9746 67.2003 74.1152V74.2754C67.1967 74.3833 67.2202 74.483 67.2747 74.5762C67.3091 74.6727 67.369 74.7561 67.4542 74.828C67.5322 74.9049 67.6265 74.9588 67.7335 74.9899C67.8368 75.0389 67.9475 75.0618 68.0672 75.0569C68.1433 75.0471 68.2213 75.0389 68.2975 75.0291C68.4443 74.9915 68.5713 74.9245 68.6801 74.828C68.7255 74.7757 68.7708 74.7234 68.8161 74.6694C68.8941 74.5468 68.934 74.416 68.934 74.2754V74.1152C68.9376 74.0073 68.9141 73.9075 68.8597 73.8143Z" fill="#F92B7A"/>
</svg>
